<svg width="201" height="60" viewBox="0 0 201 60" fill="none" xmlns="http://www.w3.org/2000/svg">
<g clip-path="url(#clip0)">
<path fill-rule="evenodd" clip-rule="evenodd" d="M193.15 60H7.97044C3.8864 60 0.560303 56.6185 0.560303 52.5V7.5C0.560303 3.36658 3.8864 0 7.97044 0H193.15C197.231 0 200.56 3.36658 200.56 7.5V52.5C200.56 56.6185 197.231 60 193.15 60Z" fill="black"/>
<path fill-rule="evenodd" clip-rule="evenodd" d="M15.9546 11.3005C15.5278 11.768 15.2812 12.4825 15.2812 13.4177V46.586C15.2812 47.5212 15.5278 48.2356 15.9693 48.6845L16.0833 48.7855L34.3622 30.202V29.7867L16.0686 11.1995L15.9546 11.3005Z" fill="url(#paint0_linear)"/>
<path fill-rule="evenodd" clip-rule="evenodd" d="M40.4438 36.4151L34.3472 30.2169V29.783L40.4438 23.5847L40.5763 23.667L47.7878 27.8341C49.8519 29.0161 49.8519 30.9688 47.7878 32.1658L40.5763 36.3328L40.4438 36.4151Z" fill="url(#paint1_linear)"/>
<path d="M105.465 19.3134C104.166 19.3134 103.072 18.8573 102.206 17.9593C101.348 17.0865 100.868 15.8833 100.89 14.6549C100.89 13.3439 101.333 12.2341 102.206 11.3541C103.068 10.4562 104.163 10 105.461 10C106.745 10 107.84 10.4562 108.72 11.3541C109.593 12.2628 110.036 13.3727 110.036 14.6549C110.022 15.9695 109.578 17.0794 108.72 17.9557C107.858 18.8609 106.763 19.3134 105.465 19.3134ZM66.8295 19.3134C65.5597 19.3134 64.4579 18.8645 63.5565 17.9773C62.6623 17.0937 62.208 15.9767 62.208 14.6585C62.208 13.3403 62.6623 12.2233 63.5565 11.3397C64.4401 10.4526 65.5418 10.0036 66.8295 10.0036C67.459 10.0036 68.0707 10.1293 68.6573 10.3843C69.2332 10.6321 69.7018 10.9698 70.0488 11.3828L70.1346 11.487L69.1653 12.4424L69.0651 12.3239C68.5178 11.6702 67.7845 11.3505 66.8152 11.3505C65.9495 11.3505 65.1948 11.6594 64.5724 12.27C63.9464 12.8842 63.6281 13.6887 63.6281 14.6621C63.6281 15.6355 63.9464 16.44 64.5724 17.0542C65.1948 17.6648 65.9495 17.9737 66.8152 17.9737C67.738 17.9737 68.5143 17.6648 69.1188 17.0542C69.4765 16.695 69.6982 16.1922 69.7769 15.5564H66.6685V14.2131H71.1112L71.129 14.3353C71.1612 14.5615 71.1934 14.795 71.1934 15.0105C71.1934 16.2497 70.8214 17.2518 70.0846 17.9917C69.2475 18.868 68.153 19.3134 66.8295 19.3134ZM118.199 19.1231H116.829L112.633 12.3813L112.669 13.5953V19.1195H111.299V10.194H112.862L112.905 10.2622L116.85 16.6124L116.814 15.402V10.194H118.199V19.1231ZM95.1701 19.1231H93.7822V11.5373H91.3749V10.194H97.5738V11.5373H95.1665V19.1231H95.1701ZM90.2445 19.1231H88.8602V10.194H90.2445V19.1231ZM82.4646 19.1231H81.0802V11.5373H78.6729V10.194H84.8719V11.5373H82.4646V19.1231ZM77.7966 19.1087H72.4883V10.194H77.7966V11.5373H73.8762V13.9868H77.4138V15.3158H73.8762V17.7654H77.7966V19.1087ZM103.222 17.0363C103.841 17.6576 104.592 17.9701 105.465 17.9701C106.362 17.9701 107.096 17.6648 107.707 17.0363C108.316 16.4257 108.623 15.6247 108.623 14.6585C108.623 13.6923 108.316 12.8878 107.711 12.2808C107.092 11.6594 106.337 11.3469 105.468 11.3469C104.57 11.3469 103.837 11.6522 103.229 12.2808C102.621 12.8914 102.313 13.6923 102.313 14.6585C102.313 15.6247 102.617 16.4292 103.222 17.0363Z" fill="white"/>
<path fill-rule="evenodd" clip-rule="evenodd" d="M100.762 31.5899C97.3813 31.5899 94.6413 34.1652 94.6413 37.7174C94.6413 41.2374 97.3992 43.845 100.762 43.845C104.142 43.845 106.882 41.2517 106.882 37.7174C106.882 34.1652 104.142 31.5899 100.762 31.5899ZM100.762 41.4169C98.9122 41.4169 97.3205 39.8797 97.3205 37.7031C97.3205 35.4941 98.9158 33.9892 100.762 33.9892C102.611 33.9892 104.203 35.4941 104.203 37.7031C104.206 39.894 102.611 41.4169 100.762 41.4169ZM87.4085 31.5899C84.0282 31.5899 81.2882 34.1652 81.2882 37.7174C81.2882 41.2374 84.0461 43.845 87.4085 43.845C90.7888 43.845 93.5288 41.2517 93.5288 37.7174C93.5288 34.1652 90.7852 31.5899 87.4085 31.5899ZM87.4085 41.4169C85.5592 41.4169 83.9674 39.8797 83.9674 37.7031C83.9674 35.4941 85.5628 33.9892 87.4085 33.9892C89.2579 33.9892 90.8496 35.4941 90.8496 37.7031C90.8496 39.894 89.2579 41.4169 87.4085 41.4169ZM71.5194 33.4612V36.0544H77.7184C77.5288 37.5091 77.0495 38.583 76.3162 39.3194C75.4076 40.2317 74.0054 41.223 71.5337 41.223C67.7242 41.223 64.7445 38.1341 64.7445 34.3089C64.7445 30.4836 67.7242 27.3947 71.5337 27.3947C73.5905 27.3947 75.0892 28.2101 76.2017 29.2517L78.0331 27.4127C76.4879 25.9257 74.4311 24.7871 71.548 24.7871C66.322 24.7871 61.9365 29.0613 61.9365 34.2945C61.9365 39.542 66.3184 43.8019 71.548 43.8019C74.3703 43.8019 76.4879 42.8752 78.1619 41.1296C79.8682 39.4163 80.4083 36.9991 80.4083 35.0488C80.4083 34.4418 80.3618 33.8958 80.2652 33.4325H71.5158C71.5194 33.4289 71.5194 33.4612 71.5194 33.4612ZM136.51 35.4798C135.999 34.1041 134.454 31.5755 131.284 31.5755C128.144 31.5755 125.532 34.0574 125.532 37.7031C125.532 41.144 128.115 43.8306 131.588 43.8306C134.378 43.8306 136.002 42.1173 136.671 41.1116L134.6 39.718C133.913 40.7417 132.958 41.4133 131.603 41.4133C130.233 41.4133 129.274 40.7884 128.637 39.5564L136.797 36.1622C136.797 36.1658 136.51 35.4798 136.51 35.4798ZM128.19 37.5271C128.126 35.1601 130.022 33.9569 131.377 33.9569C132.447 33.9569 133.338 34.4849 133.642 35.2535L128.19 37.5271ZM121.562 43.4642H124.241V25.4624H121.562V43.4642ZM117.162 32.9512H117.066C116.461 32.2292 115.313 31.5755 113.846 31.5755C110.802 31.5755 107.998 34.2658 107.998 37.721C107.998 41.1619 110.788 43.8198 113.846 43.8198C115.295 43.8198 116.461 43.1625 117.066 42.4262H117.162V43.3062C117.162 45.6444 115.917 46.9051 113.911 46.9051C112.269 46.9051 111.249 45.7199 110.834 44.7285L108.506 45.7055C109.175 47.3218 110.96 49.3224 113.907 49.3224C117.048 49.3224 119.709 47.4655 119.709 42.9363V31.9419H117.177V32.9512C117.18 32.9512 117.162 32.9512 117.162 32.9512ZM114.086 41.4169C112.237 41.4169 110.691 39.8653 110.691 37.721C110.691 35.5588 112.237 33.9928 114.086 33.9928C115.917 33.9928 117.338 35.5767 117.338 37.721C117.355 39.8653 115.921 41.4169 114.086 41.4169ZM149.055 25.4624H142.649V43.4642H145.328V36.6471H149.059C152.024 36.6471 154.939 34.4884 154.939 31.0619C154.939 27.6354 152.035 25.4624 149.055 25.4624ZM149.134 34.1329H145.324V27.955H149.134C151.14 27.955 152.274 29.618 152.274 31.0439C152.274 32.4555 151.126 34.1329 149.134 34.1329ZM165.677 31.5576C163.732 31.5576 161.725 32.4232 160.895 34.3089L163.27 35.3002C163.782 34.3089 164.719 33.9712 165.71 33.9712C167.098 33.9712 168.5 34.8045 168.532 36.2915V36.4819C168.053 36.2089 167.001 35.7923 165.742 35.7923C163.177 35.7923 160.577 37.2002 160.577 39.8402C160.577 42.2574 162.68 43.809 165.023 43.809C166.822 43.809 167.813 42.9937 168.432 42.0491H168.528V43.4427H171.111V36.5465C171.111 33.3355 168.736 31.5576 165.677 31.5576ZM165.341 41.4169C164.465 41.4169 163.238 40.9859 163.238 39.8797C163.238 38.4861 164.769 37.9581 166.074 37.9581C167.255 37.9581 167.813 38.2131 168.514 38.5651C168.321 40.1814 166.962 41.4026 165.341 41.4169ZM180.533 31.9419L177.457 39.7504H177.36L174.173 31.9419H171.29L176.072 42.8572L173.347 48.9237H176.137L183.495 31.9419H180.533ZM156.417 43.4642H159.096V25.4624H156.417V43.4642Z" fill="white"/>
<path fill-rule="evenodd" clip-rule="evenodd" d="M41.9374 35.1424L35.8815 29.0615L18 47.0167C18.6546 47.7207 19.7527 47.7997 20.9797 47.1137L41.9374 35.1424Z" fill="url(#paint2_linear)"/>
<path fill-rule="evenodd" clip-rule="evenodd" d="M40.5765 23.6669L19.0195 11.218C17.7575 10.4849 16.6242 10.5859 15.9546 11.319L34.3475 29.9998L40.5765 23.6669Z" fill="url(#paint3_linear)"/>
<path opacity="0.2" fill-rule="evenodd" clip-rule="evenodd" d="M40.4439 36.1985L19.0339 48.565C17.8381 49.2645 16.7711 49.2159 16.0831 48.58L15.969 48.6959L16.0831 48.7969C16.7711 49.4291 17.8381 49.4815 19.0339 48.782L40.5911 36.3331L40.4439 36.1985Z" fill="black"/>
<path opacity="0.12" fill-rule="evenodd" clip-rule="evenodd" d="M47.7881 31.9489L40.4258 36.1983L40.5582 36.3329L47.7697 32.1658C48.8036 31.5673 49.3113 30.7818 49.3113 30C49.2488 30.7182 48.7226 31.399 47.7881 31.9489Z" fill="black"/>
<path opacity="0.25" fill-rule="evenodd" clip-rule="evenodd" d="M19.0194 11.4352L47.788 28.0512C48.7225 28.5861 49.2487 29.2856 49.3296 30C49.3296 29.2182 48.8218 28.4327 47.788 27.8342L19.0194 11.2182C16.9553 10.0175 15.2812 11.02 15.2812 13.4177V13.6347C15.2812 11.2332 16.9553 10.2494 19.0194 11.4352Z" fill="white"/>
</g>
<defs>
<linearGradient id="paint0_linear" x1="32.7226" y1="13.0598" x2="3.3798" y2="20.75" gradientUnits="userSpaceOnUse">
<stop stop-color="#00A0FF"/>
<stop offset="0.00657" stop-color="#00A1FF"/>
<stop offset="0.2601" stop-color="#00BEFF"/>
<stop offset="0.5122" stop-color="#00D2FF"/>
<stop offset="0.7604" stop-color="#00DFFF"/>
<stop offset="1" stop-color="#00E3FF"/>
</linearGradient>
<linearGradient id="paint1_linear" x1="50.4795" y1="30" x2="14.7792" y2="30" gradientUnits="userSpaceOnUse">
<stop stop-color="#FFE000"/>
<stop offset="0.4087" stop-color="#FFBD00"/>
<stop offset="0.7754" stop-color="#FFA500"/>
<stop offset="1" stop-color="#FF9C00"/>
</linearGradient>
<linearGradient id="paint2_linear" x1="38.6445" y1="32.3704" x2="15.6534" y2="70.9076" gradientUnits="userSpaceOnUse">
<stop stop-color="#FF3A44"/>
<stop offset="1" stop-color="#C31162"/>
</linearGradient>
<linearGradient id="paint3_linear" x1="11.3231" y1="0.268025" x2="22.0682" y2="18.0755" gradientUnits="userSpaceOnUse">
<stop stop-color="#32A071"/>
<stop offset="0.0685" stop-color="#2DA771"/>
<stop offset="0.4762" stop-color="#15CF74"/>
<stop offset="0.8009" stop-color="#06E775"/>
<stop offset="1" stop-color="#00F076"/>
</linearGradient>
<clipPath id="clip0">
<rect width="200" height="60" fill="white" transform="translate(0.560303)"/>
</clipPath>
</defs>
</svg>
