<svg width="200" height="60" viewBox="0 0 200 60" fill="none" xmlns="http://www.w3.org/2000/svg">
<g clip-path="url(#clip0)">
<path d="M184.073 -4.91406e-05H15.9357C15.3229 -4.91406e-05 14.7173 -4.91405e-05 14.1061 0.00295086C13.5944 0.00595086 13.0868 0.0146659 12.5702 0.0220009C11.4479 0.0338536 10.3283 0.122465 9.22098 0.287066C8.11526 0.45525 7.04417 0.772324 6.04395 1.22757C5.04496 1.68666 4.13214 2.2832 3.33863 2.99556C2.54095 3.70591 1.87602 4.52698 1.36942 5.42719C0.861412 6.32561 0.50916 7.28836 0.324826 8.28217C0.13874 9.27473 0.0386054 10.2787 0.0253209 11.2852C0.0098108 11.7451 0.00817288 12.2065 0 12.6665V47.3378C0.00817288 47.8036 0.0098108 48.2548 0.0253209 48.7207C0.0386094 49.7271 0.138744 50.731 0.324826 51.7235C0.508651 52.7179 0.860924 53.6812 1.36942 54.58C1.87579 55.4773 2.54081 56.295 3.33863 57.0014C4.12913 57.717 5.04254 58.3139 6.04395 58.7695C7.04417 59.226 8.11514 59.5449 9.22098 59.7157C10.3284 59.879 11.448 59.9676 12.5702 59.9809C13.0868 59.9911 13.5944 59.997 14.1061 59.997C14.7173 60 15.3229 60 15.9357 60H184.073C184.674 60 185.284 60 185.885 59.997C186.394 59.997 186.917 59.9911 187.426 59.9809C188.546 59.9683 189.663 59.8797 190.768 59.7157C191.878 59.5437 192.953 59.2248 193.958 58.7695C194.958 58.3137 195.871 57.7167 196.661 57.0014C197.456 56.2923 198.123 55.4751 198.636 54.58C199.14 53.6806 199.489 52.7174 199.67 51.7235C199.857 50.7309 199.96 49.7272 199.98 48.7207C199.987 48.2548 199.987 47.8036 199.987 47.3378C200 46.7929 200 46.2509 200 45.6972V14.3041C200 13.7548 200 13.2099 199.987 12.6665C199.987 12.2065 199.987 11.7451 199.98 11.2851C199.96 10.2786 199.857 9.27481 199.67 8.28211C199.489 7.28887 199.14 6.32621 198.636 5.42713C197.604 3.62274 195.968 2.15399 193.958 1.22743C192.953 0.773302 191.878 0.456311 190.768 0.286931C189.664 0.121605 188.546 0.0329625 187.426 0.0217909C186.917 0.0144709 186.394 0.00568086 185.885 0.00275586C185.284 -0.000244141 184.674 -0.000244141 184.073 -0.000244141V-4.91406e-05Z" fill="black"/>
<path d="M50.163 29.345C50.1791 28.0949 50.5112 26.8691 51.1283 25.7818C51.7454 24.6945 52.6275 23.781 53.6926 23.1262C53.016 22.1599 52.1234 21.3647 51.0857 20.8037C50.048 20.2427 48.8938 19.9314 47.7148 19.8945C45.1997 19.6305 42.7614 21.3995 41.4797 21.3995C40.1733 21.3995 38.2 19.9208 36.0751 19.9645C34.7006 20.0089 33.3611 20.4086 32.1871 21.1246C31.013 21.8406 30.0444 22.8485 29.3757 24.0501C26.4791 29.0653 28.6397 36.4358 31.4145 40.4897C32.8028 42.4747 34.4252 44.6921 36.5482 44.6134C38.6257 44.5273 39.4016 43.2887 41.9093 43.2887C44.3937 43.2887 45.1217 44.6134 47.2878 44.5635C49.517 44.5273 50.9215 42.5696 52.2611 40.5657C53.2586 39.1513 54.0261 37.5881 54.5353 35.9339C53.2402 35.3861 52.135 34.4692 51.3574 33.2975C50.5799 32.1258 50.1645 30.7512 50.163 29.345Z" fill="white"/>
<path d="M46.0715 17.2284C47.287 15.7692 47.8858 13.8938 47.7408 12.0002C45.8838 12.1953 44.1685 13.0828 42.9366 14.4859C42.3343 15.1714 41.873 15.9689 41.5791 16.8327C41.2852 17.6966 41.1644 18.6099 41.2236 19.5205C42.1525 19.53 43.0713 19.3287 43.9111 18.9317C44.7508 18.5347 45.4895 17.9523 46.0715 17.2284Z" fill="white"/>
<path d="M75.0872 39.7869H68.2697L66.6325 44.6212H63.7449L70.2023 26.7356H73.2024L79.6598 44.6212H76.723L75.0872 39.7869ZM68.9758 37.5561H74.3798L71.7158 29.7105H71.6412L68.9758 37.5561Z" fill="white"/>
<path d="M93.6056 38.1019C93.6056 42.1542 91.4367 44.7577 88.1637 44.7577C87.3346 44.801 86.51 44.6101 85.7844 44.2066C85.0588 43.8031 84.4615 43.2034 84.0608 42.4762H83.9989V48.9351H81.3223V31.5812H83.9131V33.7501H83.9623C84.3814 33.0264 84.9888 32.4299 85.7199 32.0239C86.4511 31.618 87.2786 31.4178 88.1144 31.4448C91.4241 31.4448 93.6056 34.061 93.6056 38.1019ZM90.8544 38.1019C90.8544 35.4619 89.4901 33.7262 87.4084 33.7262C85.3633 33.7262 83.9877 35.4984 83.9877 38.1019C83.9877 40.7294 85.3633 42.4889 87.4084 42.4889C89.4901 42.4889 90.8543 40.7659 90.8543 38.1019H90.8544Z" fill="white"/>
<path d="M107.959 38.1019C107.959 42.1542 105.789 44.7577 102.516 44.7577C101.687 44.801 100.862 44.6101 100.137 44.2066C99.4111 43.8031 98.8138 43.2034 98.4131 42.4762H98.3512V48.9351H95.6746V31.5812H98.2654V33.7501H98.3146C98.7337 33.0264 99.3411 32.4299 100.072 32.0239C100.803 31.618 101.631 31.4178 102.467 31.4448C105.776 31.4448 107.959 34.061 107.959 38.1019ZM105.207 38.1019C105.207 35.4619 103.842 33.7262 101.761 33.7262C99.7156 33.7262 98.34 35.4984 98.34 38.1019C98.34 40.7294 99.7156 42.4889 101.761 42.4889C103.842 42.4889 105.207 40.7659 105.207 38.1019Z" fill="white"/>
<path d="M117.443 39.6379C117.641 41.4116 119.364 42.5761 121.719 42.5761C123.975 42.5761 125.598 41.4115 125.598 39.8123C125.598 38.424 124.619 37.5928 122.301 37.0231L119.983 36.4647C116.699 35.6714 115.174 34.1355 115.174 31.6431C115.174 28.5572 117.863 26.4375 121.681 26.4375C125.462 26.4375 128.052 28.5572 128.14 31.6431H125.438C125.276 29.8582 123.8 28.7808 121.644 28.7808C119.488 28.7808 118.013 29.8709 118.013 31.4574C118.013 32.7219 118.955 33.466 121.26 34.0356L123.231 34.5194C126.9 35.3873 128.424 36.8613 128.424 39.4775C128.424 42.8236 125.76 44.9194 121.52 44.9194C117.554 44.9194 114.876 42.8728 114.703 39.6378L117.443 39.6379Z" fill="white"/>
<path d="M134.203 28.4951V31.5811H136.683V33.7007H134.203V40.8895C134.203 42.0063 134.7 42.5267 135.79 42.5267C136.084 42.5216 136.378 42.5009 136.67 42.4648V44.5718C136.18 44.6634 135.682 44.7048 135.184 44.6956C132.544 44.6956 131.514 43.704 131.514 41.175V33.7007H129.618V31.5811H131.514V28.4951H134.203Z" fill="white"/>
<path d="M138.118 38.1019C138.118 33.9991 140.534 31.4209 144.302 31.4209C148.083 31.4209 150.488 33.999 150.488 38.1019C150.488 42.2161 148.096 44.783 144.302 44.783C140.51 44.783 138.118 42.2161 138.118 38.1019ZM147.761 38.1019C147.761 35.2875 146.471 33.6263 144.302 33.6263C142.133 33.6263 140.844 35.3001 140.844 38.1019C140.844 40.9277 142.133 42.5761 144.302 42.5761C146.471 42.5761 147.761 40.9277 147.761 38.1019H147.761Z" fill="white"/>
<path d="M152.695 31.5813H155.248V33.8008H155.31C155.482 33.1076 155.888 32.495 156.46 32.066C157.031 31.637 157.732 31.4176 158.446 31.4449C158.755 31.4438 159.062 31.4773 159.363 31.5448V34.0484C158.974 33.9294 158.568 33.8748 158.161 33.8867C157.772 33.8709 157.384 33.9394 157.024 34.0876C156.664 34.2358 156.341 34.4601 156.076 34.7451C155.811 35.0302 155.611 35.3691 155.489 35.7388C155.368 36.1085 155.327 36.5001 155.371 36.8868V44.6213H152.695L152.695 31.5813Z" fill="white"/>
<path d="M171.704 40.7912C171.344 43.1584 169.039 44.783 166.089 44.783C162.296 44.783 159.941 42.2414 159.941 38.1638C159.941 34.0736 162.309 31.4209 165.977 31.4209C169.585 31.4209 171.853 33.8992 171.853 37.853V38.7701H162.643V38.9318C162.601 39.4117 162.661 39.8952 162.82 40.3501C162.978 40.805 163.232 41.2209 163.564 41.5702C163.896 41.9196 164.298 42.1943 164.744 42.3763C165.19 42.5582 165.67 42.6431 166.151 42.6254C166.784 42.6846 167.419 42.5381 167.961 42.2077C168.504 41.8772 168.925 41.3804 169.163 40.7912L171.704 40.7912ZM162.656 36.8994H169.175C169.199 36.4679 169.134 36.036 168.983 35.631C168.832 35.226 168.6 34.8565 168.299 34.5457C167.999 34.235 167.638 33.9896 167.238 33.8251C166.838 33.6606 166.409 33.5805 165.977 33.5898C165.541 33.5872 165.109 33.6709 164.706 33.8362C164.302 34.0014 163.936 34.245 163.627 34.5526C163.318 34.8603 163.073 35.2261 162.907 35.6289C162.74 36.0317 162.655 36.4635 162.656 36.8994V36.8994Z" fill="white"/>
<path d="M68.6408 13.2729C69.202 13.2327 69.7651 13.3174 70.2895 13.5211C70.814 13.7249 71.2866 14.0424 71.6735 14.4509C72.0603 14.8594 72.3517 15.3487 72.5265 15.8834C72.7014 16.4182 72.7554 16.985 72.6846 17.5432C72.6846 20.2887 71.2007 21.8669 68.6408 21.8669H65.5366V13.2729H68.6408ZM66.8714 20.6516H68.4917C68.8927 20.6755 69.294 20.6098 69.6664 20.4591C70.0388 20.3084 70.3728 20.0766 70.6443 19.7805C70.9158 19.4845 71.1179 19.1316 71.2358 18.7476C71.3537 18.3636 71.3845 17.9581 71.3259 17.5607C71.3802 17.1649 71.3463 16.7619 71.2266 16.3807C71.1069 15.9995 70.9043 15.6495 70.6335 15.3558C70.3626 15.0621 70.0301 14.8319 69.6598 14.6818C69.2896 14.5316 68.8907 14.4653 68.4917 14.4874H66.8714V20.6516Z" fill="white"/>
<path d="M74.1927 18.6212C74.1519 18.195 74.2007 17.7649 74.3358 17.3587C74.471 16.9524 74.6896 16.5789 74.9775 16.262C75.2655 15.9452 75.6165 15.6921 76.0081 15.5188C76.3996 15.3456 76.823 15.2561 77.2512 15.2561C77.6794 15.2561 78.1028 15.3456 78.4943 15.5188C78.8859 15.6921 79.2369 15.9452 79.5249 16.262C79.8128 16.5789 80.0314 16.9524 80.1666 17.3587C80.3017 17.7649 80.3505 18.195 80.3097 18.6212C80.3513 19.0478 80.3031 19.4784 80.1683 19.8854C80.0335 20.2923 79.815 20.6665 79.527 20.984C79.2389 21.3014 78.8877 21.5551 78.4957 21.7287C78.1038 21.9023 77.6799 21.992 77.2512 21.992C76.8225 21.992 76.3986 21.9023 76.0067 21.7287C75.6147 21.5551 75.2635 21.3014 74.9754 20.984C74.6874 20.6665 74.4689 20.2923 74.3341 19.8854C74.1993 19.4784 74.1511 19.0478 74.1927 18.6212ZM78.9932 18.6212C78.9932 17.2153 78.3616 16.3932 77.2533 16.3932C76.1407 16.3932 75.5149 17.2153 75.5149 18.6212C75.5149 20.0383 76.1408 20.8541 77.2533 20.8541C78.3617 20.854 78.9932 20.0326 78.9932 18.6212H78.9932Z" fill="white"/>
<path d="M88.4407 21.8669H87.113L85.7725 17.0903H85.6713L84.3365 21.8669H83.0214L81.2336 15.3813H82.5319L83.6937 20.3302H83.7893L85.1227 15.3813H86.3506L87.684 20.3302H87.7853L88.9415 15.3813H90.2214L88.4407 21.8669Z" fill="white"/>
<path d="M91.7251 15.3813H92.9572V16.4116H93.0529C93.2151 16.0416 93.4888 15.7314 93.8357 15.5243C94.1826 15.3171 94.5855 15.2234 94.9883 15.2561C95.3038 15.2324 95.6207 15.28 95.9154 15.3954C96.2101 15.5107 96.475 15.6909 96.6906 15.9226C96.9062 16.1542 97.0669 16.4314 97.1608 16.7336C97.2547 17.0358 97.2794 17.3553 97.2331 17.6683V21.8668H95.9532V17.9898C95.9532 16.9475 95.5003 16.4292 94.5537 16.4292C94.3394 16.4192 94.1255 16.4557 93.9267 16.5361C93.7278 16.6165 93.5487 16.739 93.4016 16.8951C93.2545 17.0512 93.1429 17.2372 93.0745 17.4405C93.006 17.6438 92.9823 17.8595 93.005 18.0727V21.8669H91.7251L91.7251 15.3813Z" fill="white"/>
<path d="M99.2725 12.8496H100.552V21.8669H99.2725V12.8496Z" fill="white"/>
<path d="M102.332 18.6213C102.291 18.1951 102.34 17.765 102.475 17.3587C102.61 16.9525 102.829 16.5789 103.117 16.2621C103.405 15.9452 103.756 15.6921 104.147 15.5188C104.539 15.3456 104.963 15.2561 105.391 15.2561C105.819 15.2561 106.242 15.3456 106.634 15.5188C107.025 15.6921 107.377 15.9452 107.665 16.2621C107.953 16.5789 108.171 16.9525 108.306 17.3587C108.442 17.765 108.49 18.1951 108.45 18.6213C108.491 19.048 108.443 19.4786 108.308 19.8855C108.173 20.2924 107.955 20.6666 107.667 20.9841C107.379 21.3015 107.027 21.5552 106.635 21.7288C106.243 21.9024 105.819 21.9921 105.391 21.9921C104.962 21.9921 104.538 21.9024 104.146 21.7288C103.754 21.5552 103.403 21.3015 103.115 20.9841C102.827 20.6666 102.608 20.2924 102.473 19.8855C102.339 19.4786 102.29 19.048 102.332 18.6213ZM107.132 18.6213C107.132 17.2155 106.501 16.3933 105.392 16.3933C104.28 16.3933 103.654 17.2155 103.654 18.6213C103.654 20.0384 104.28 20.8542 105.392 20.8542C106.501 20.8542 107.132 20.0328 107.132 18.6213H107.132Z" fill="white"/>
<path d="M109.797 20.0327C109.797 18.8653 110.666 18.1922 112.209 18.0966L113.966 17.9953V17.4355C113.966 16.7505 113.513 16.3637 112.638 16.3637C111.924 16.3637 111.428 16.6261 111.286 17.0846H110.047C110.178 15.9706 111.226 15.2561 112.697 15.2561C114.323 15.2561 115.24 16.0655 115.24 17.4355V21.8668H114.008V20.9554H113.907C113.701 21.2823 113.413 21.5489 113.07 21.7278C112.728 21.9067 112.344 21.9915 111.959 21.9737C111.686 22.002 111.411 21.973 111.151 21.8884C110.891 21.8039 110.651 21.6657 110.447 21.4828C110.243 21.3 110.08 21.0764 109.968 20.8267C109.856 20.5769 109.798 20.3064 109.797 20.0327ZM113.966 19.4785V18.9363L112.382 19.0376C111.489 19.0973 111.084 19.4012 111.084 19.9729C111.084 20.5566 111.59 20.8963 112.286 20.8963C112.491 20.9169 112.697 20.8963 112.892 20.8357C113.088 20.7751 113.27 20.6757 113.427 20.5434C113.583 20.4111 113.712 20.2487 113.805 20.0657C113.897 19.8828 113.952 19.6831 113.966 19.4785Z" fill="white"/>
<path d="M116.922 18.6214C116.922 16.572 117.976 15.2738 119.614 15.2738C120.02 15.2551 120.422 15.3522 120.774 15.5537C121.126 15.7552 121.414 16.0528 121.603 16.4116H121.699V12.8496H122.979V21.8669H121.752V20.8422H121.651C121.447 21.1987 121.15 21.4926 120.791 21.692C120.432 21.8915 120.025 21.9889 119.614 21.9738C117.965 21.9739 116.922 20.6756 116.922 18.6214ZM118.245 18.6214C118.245 19.997 118.893 20.8247 119.977 20.8247C121.056 20.8247 121.723 19.985 121.723 18.627C121.723 17.2753 121.049 16.4236 119.977 16.4236C118.9 16.4236 118.245 17.257 118.245 18.6214H118.245Z" fill="white"/>
<path d="M128.275 18.6212C128.234 18.195 128.283 17.7649 128.418 17.3587C128.553 16.9524 128.772 16.5789 129.06 16.262C129.348 15.9452 129.699 15.6921 130.09 15.5188C130.482 15.3456 130.905 15.2561 131.333 15.2561C131.761 15.2561 132.185 15.3456 132.576 15.5188C132.968 15.6921 133.319 15.9452 133.607 16.262C133.895 16.5789 134.113 16.9524 134.249 17.3587C134.384 17.7649 134.433 18.195 134.392 18.6212C134.433 19.0478 134.385 19.4784 134.25 19.8854C134.116 20.2923 133.897 20.6665 133.609 20.984C133.321 21.3014 132.97 21.5551 132.578 21.7287C132.186 21.9023 131.762 21.992 131.333 21.992C130.905 21.992 130.481 21.9023 130.089 21.7287C129.697 21.5551 129.345 21.3014 129.057 20.984C128.769 20.6665 128.551 20.2923 128.416 19.8854C128.281 19.4784 128.233 19.0478 128.275 18.6212ZM133.075 18.6212C133.075 17.2153 132.444 16.3932 131.335 16.3932C130.223 16.3932 129.597 17.2153 129.597 18.6212C129.597 20.0383 130.223 20.8541 131.335 20.8541C132.444 20.854 133.075 20.0326 133.075 18.6212Z" fill="white"/>
<path d="M136.109 15.3813H137.341V16.4116H137.437C137.599 16.0416 137.873 15.7314 138.22 15.5243C138.567 15.3171 138.97 15.2234 139.372 15.2561C139.688 15.2324 140.005 15.28 140.299 15.3954C140.594 15.5107 140.859 15.6909 141.075 15.9226C141.29 16.1542 141.451 16.4314 141.545 16.7336C141.639 17.0358 141.663 17.3553 141.617 17.6683V21.8668H140.337V17.9898C140.337 16.9475 139.884 16.4292 138.938 16.4292C138.723 16.4192 138.51 16.4557 138.311 16.5361C138.112 16.6165 137.933 16.739 137.786 16.8951C137.639 17.0512 137.527 17.2372 137.459 17.4405C137.39 17.6438 137.366 17.8595 137.389 18.0727V21.8669H136.109V15.3813Z" fill="white"/>
<path d="M148.85 13.7666V15.4108H150.255V16.489H148.85V19.8239C148.85 20.5032 149.129 20.8007 149.767 20.8007C149.93 20.8002 150.093 20.7903 150.255 20.7712V21.8373C150.025 21.8784 149.792 21.9003 149.558 21.9027C148.135 21.9027 147.568 21.402 147.568 20.1516V16.4889H146.539V15.4108H147.568V13.7666H148.85Z" fill="white"/>
<path d="M152.003 12.8496H153.272V16.4236H153.373C153.543 16.0501 153.824 15.7382 154.178 15.5303C154.532 15.3224 154.941 15.2286 155.35 15.2618C155.664 15.2447 155.978 15.2972 156.27 15.4153C156.561 15.5335 156.823 15.7145 157.036 15.9454C157.249 16.1764 157.409 16.4515 157.504 16.7513C157.598 17.0511 157.626 17.3681 157.584 17.6797V21.8669H156.303V17.9954C156.303 16.9595 155.82 16.4349 154.916 16.4349C154.696 16.4168 154.475 16.4471 154.268 16.5235C154.06 16.5999 153.873 16.7206 153.717 16.8772C153.562 17.0339 153.442 17.2226 153.367 17.4302C153.292 17.6378 153.263 17.8592 153.283 18.0791V21.8669H152.003L152.003 12.8496Z" fill="white"/>
<path d="M165.047 20.1158C164.873 20.7085 164.496 21.2213 163.983 21.5643C163.469 21.9073 162.851 22.0587 162.237 21.9921C161.809 22.0034 161.385 21.9215 160.992 21.7523C160.6 21.583 160.249 21.3303 159.964 21.0118C159.679 20.6933 159.466 20.3166 159.342 19.9078C159.217 19.499 159.182 19.068 159.241 18.6446C159.184 18.2198 159.219 17.7879 159.343 17.3778C159.468 16.9678 159.679 16.5894 159.963 16.2681C160.246 15.9468 160.596 15.6902 160.987 15.5156C161.378 15.341 161.803 15.2526 162.231 15.2562C164.036 15.2562 165.124 16.4891 165.124 18.5257V18.9723H160.545V19.044C160.525 19.282 160.555 19.5216 160.632 19.7474C160.71 19.9731 160.835 20.1801 160.997 20.355C161.16 20.53 161.357 20.669 161.577 20.7632C161.796 20.8574 162.033 20.9047 162.272 20.902C162.578 20.9388 162.888 20.8836 163.163 20.7436C163.438 20.6036 163.665 20.3851 163.815 20.1158L165.047 20.1158ZM160.545 18.0257H163.82C163.837 17.808 163.807 17.5894 163.734 17.3838C163.66 17.1783 163.545 16.9903 163.394 16.8321C163.244 16.6739 163.062 16.5489 162.861 16.4651C162.659 16.3813 162.442 16.3406 162.224 16.3456C162.003 16.3428 161.783 16.3844 161.578 16.4678C161.373 16.5513 161.187 16.6749 161.03 16.8315C160.874 16.9881 160.75 17.1744 160.667 17.3795C160.583 17.5846 160.542 17.8043 160.545 18.0257H160.545Z" fill="white"/>
</g>
<defs>
<clipPath id="clip0">
<rect width="200" height="60" fill="white"/>
</clipPath>
</defs>
</svg>
