<svg width="357" height="226" viewBox="0 0 357 226" fill="none" xmlns="http://www.w3.org/2000/svg">
<path d="M249.284 132.733V15H204.083V132.733H119V196.823H247.574V197H281V132.556H249.284V132.733ZM243.396 85.463H209.971V82.2763H243.396V85.463ZM243.396 79.0895H209.971V75.9027H243.396V79.0895ZM243.396 72.716H209.971V69.5292H243.396V72.716ZM243.396 66.3424H209.971V63.1556H243.396V66.3424ZM243.396 59.9689H209.971V56.7821H243.396V59.9689ZM243.396 53.5953H209.971V50.4086H243.396V53.5953ZM243.396 47.2218H209.971V44.035H243.396V47.2218ZM243.396 40.8483H209.971V37.6615H243.396V40.8483ZM243.396 34.4747H209.971V31.2879H243.396V34.4747ZM243.396 28.1012H209.971V24.9144H243.396V28.1012ZM243.396 21.7276H209.971V18.5409H243.396V21.7276Z" fill="#DFF9FF"/>
<path d="M320.034 132.934V13.464H314.534V1.32744H274.711V13.464H269.401V163.844H230.336V95.7654H173.446V185.083H145.759V25.0317H89.6276V147.915H82.9904V74.716H72.7501L44.4946 59.7349V74.716H38.2366V165.172H24.583V42.8574H10.7396V0H8.8433V42.8574H-5V197.409H356.823V133.123H320.034V132.934ZM21.3592 121.176H-1.5866V118.522H21.3592V121.176ZM21.3592 115.108H-1.5866V112.453H21.3592V115.108ZM21.3592 108.85H-1.5866V106.195H21.3592V108.85ZM21.3592 102.782H-1.5866V100.127H21.3592V102.782ZM21.3592 96.5239H-1.5866V93.8691H21.3592V96.5239ZM21.3592 90.4556H-1.5866V87.8008H21.3592V90.4556ZM21.3592 84.1977H-1.5866V81.5428H21.3592V84.1977ZM21.3592 78.1294H-1.5866V75.4745H21.3592V78.1294ZM21.3592 72.0611H-1.5866V69.4062H21.3592V72.0611ZM21.3592 65.8032H-1.5866V63.1483H21.3592V65.8032ZM21.3592 59.7349H-1.5866V57.08H21.3592V59.7349ZM21.3592 53.4769H-1.5866V50.822H21.3592V53.4769ZM21.3592 47.4086H-1.5866V44.7537H21.3592V47.4086ZM101.764 84.0081H94.9374V77.1812H101.764V84.0081ZM101.764 72.63H94.9374V65.8032H101.764V72.63ZM101.764 61.2519H94.9374V54.4251H101.764V61.2519ZM101.764 49.8739H94.9374V43.047H101.764V49.8739ZM101.764 38.4958H94.9374V31.669H101.764V38.4958ZM114.659 84.0081H107.833V77.1812H114.659V84.0081ZM114.659 72.63H107.833V65.8032H114.659V72.63ZM114.659 61.2519H107.833V54.4251H114.659V61.2519ZM114.659 49.8739H107.833V43.047H114.659V49.8739ZM114.659 38.4958H107.833V31.669H114.659V38.4958ZM127.555 84.0081H120.728V77.1812H127.555V84.0081ZM127.555 72.63H120.728V65.8032H127.555V72.63ZM127.555 61.2519H120.728V54.4251H127.555V61.2519ZM127.555 49.8739H120.728V43.047H127.555V49.8739ZM127.555 38.4958H120.728V31.669H127.555V38.4958ZM140.639 84.0081H133.812V77.1812H140.639V84.0081ZM140.639 72.63H133.812V65.8032H140.639V72.63ZM140.639 61.2519H133.812V54.4251H140.639V61.2519ZM140.639 49.8739H133.812V43.047H140.639V49.8739ZM327.05 189.066H320.034V182.049H327.05V189.066ZM327.05 174.843H320.034V167.827H327.05V174.843ZM327.05 160.62H320.034V153.604H327.05V160.62ZM327.05 146.587H320.034V139.571H327.05V146.587ZM340.324 189.066H333.308V182.049H340.324V189.066ZM340.324 174.843H333.308V167.827H340.324V174.843ZM340.324 160.62H333.308V153.604H340.324V160.62ZM340.324 146.587H333.308V139.571H340.324V146.587ZM353.409 189.066H346.393V182.049H353.409V189.066ZM353.409 174.843H346.393V167.827H353.409V174.843ZM353.409 160.62H346.393V153.604H353.409V160.62ZM353.409 146.587H346.393V139.571H353.409V146.587Z" fill="#DFF9FF"/>
<path d="M140.64 168.205H133.813V175.032H140.64V168.205Z" fill="white"/>
<path d="M101.765 179.583H94.9381V186.41H101.765V179.583Z" fill="white"/>
<path d="M114.66 179.583H107.833V186.41H114.66V179.583Z" fill="white"/>
<path d="M127.555 179.583H120.728V186.41H127.555V179.583Z" fill="white"/>
<path d="M140.64 179.583H133.813V186.41H140.64V179.583Z" fill="white"/>
<path d="M140.64 54.4243H133.813V61.2512H140.64V54.4243Z" fill="white"/>
<path d="M101.765 65.8035H94.9381V72.6303H101.765V65.8035Z" fill="white"/>
<path d="M114.66 65.8035H107.833V72.6303H114.66V65.8035Z" fill="white"/>
<path d="M127.555 65.8035H120.728V72.6303H127.555V65.8035Z" fill="white"/>
<path d="M140.64 65.8035H133.813V72.6303H140.64V65.8035Z" fill="white"/>
<path d="M101.765 77.1809H94.9381V84.0078H101.765V77.1809Z" fill="white"/>
<path d="M114.66 77.1809H107.833V84.0078H114.66V77.1809Z" fill="white"/>
<path d="M127.555 77.1809H120.728V84.0078H127.555V77.1809Z" fill="white"/>
<path d="M140.64 77.1809H133.813V84.0078H140.64V77.1809Z" fill="white"/>
<path d="M101.765 88.5583H94.9381V95.3852H101.765V88.5583Z" fill="white"/>
<path d="M114.66 88.5583H107.833V95.3852H114.66V88.5583Z" fill="white"/>
<path d="M127.555 88.5583H120.728V95.3852H127.555V88.5583Z" fill="white"/>
<path d="M140.64 88.5583H133.813V95.3852H140.64V88.5583Z" fill="white"/>
<path d="M101.765 99.937H94.9381V106.764H101.765V99.937Z" fill="white"/>
<path d="M114.66 99.937H107.833V106.764H114.66V99.937Z" fill="white"/>
<path d="M127.555 99.937H120.728V106.764H127.555V99.937Z" fill="white"/>
<path d="M140.64 99.937H133.813V106.764H140.64V99.937Z" fill="white"/>
<path d="M101.765 111.315H94.9381V118.142H101.765V111.315Z" fill="white"/>
<path d="M114.66 111.315H107.833V118.142H114.66V111.315Z" fill="white"/>
<path d="M127.555 111.315H120.728V118.142H127.555V111.315Z" fill="white"/>
<path d="M140.64 111.315H133.813V118.142H140.64V111.315Z" fill="white"/>
<path d="M101.765 122.694H94.9381V129.521H101.765V122.694Z" fill="white"/>
<path d="M114.66 122.694H107.833V129.521H114.66V122.694Z" fill="white"/>
<path d="M127.555 122.694H120.728V129.521H127.555V122.694Z" fill="white"/>
<path d="M140.64 122.694H133.813V129.521H140.64V122.694Z" fill="white"/>
<path d="M101.765 134.071H94.9381V140.898H101.765V134.071Z" fill="white"/>
<path d="M114.66 134.071H107.833V140.898H114.66V134.071Z" fill="white"/>
<path d="M127.555 134.071H120.728V140.898H127.555V134.071Z" fill="white"/>
<path d="M140.64 134.071H133.813V140.898H140.64V134.071Z" fill="white"/>
<path d="M101.765 145.449H94.9381V152.276H101.765V145.449Z" fill="white"/>
<path d="M114.66 145.449H107.833V152.276H114.66V145.449Z" fill="white"/>
<path d="M127.555 145.449H120.728V152.276H127.555V145.449Z" fill="white"/>
<path d="M140.64 145.449H133.813V152.276H140.64V145.449Z" fill="white"/>
<path d="M101.765 156.827H94.9381V163.654H101.765V156.827Z" fill="white"/>
<path d="M114.66 156.827H107.833V163.654H114.66V156.827Z" fill="white"/>
<path d="M127.555 156.827H120.728V163.654H127.555V156.827Z" fill="white"/>
<path d="M140.64 156.827H133.813V163.654H140.64V156.827Z" fill="white"/>
<path d="M101.765 168.205H94.9381V175.032H101.765V168.205Z" fill="white"/>
<path d="M114.66 168.205H107.833V175.032H114.66V168.205Z" fill="white"/>
<path d="M127.555 168.205H120.728V175.032H127.555V168.205Z" fill="white"/>
<path d="M101.765 31.6697H94.9386V38.4965H101.765V31.6697Z" fill="white"/>
<path d="M114.66 31.6687H107.833V38.4956H114.66V31.6687Z" fill="white"/>
<path d="M127.555 31.6687H120.728V38.4956H127.555V31.6687Z" fill="white"/>
<path d="M101.765 43.0469H94.9381V49.8737H101.765V43.0469Z" fill="white"/>
<path d="M114.66 43.0469H107.833V49.8737H114.66V43.0469Z" fill="white"/>
<path d="M127.555 43.0469H120.728V49.8737H127.555V43.0469Z" fill="white"/>
<path d="M140.64 43.0469H133.813V49.8737H140.64V43.0469Z" fill="white"/>
<path d="M101.765 54.4243H94.9381V61.2512H101.765V54.4243Z" fill="white"/>
<path d="M114.66 54.4243H107.833V61.2512H114.66V54.4243Z" fill="white"/>
<path d="M127.555 54.4243H120.728V61.2512H127.555V54.4243Z" fill="white"/>
<path d="M168.78 225.02H153.227C150.508 225.02 148.224 222.845 148.224 220.017V170.966C148.224 168.247 150.399 165.963 153.227 165.963H168.78C171.499 165.963 173.783 168.138 173.783 170.966V220.017C173.783 222.736 171.499 225.02 168.78 225.02Z" fill="#353535"/>
<path d="M168.889 211.424H153.227C150.508 211.424 148.333 209.249 148.333 206.53V170.856C148.333 168.137 150.508 165.962 153.227 165.962H168.889C171.608 165.962 173.783 168.137 173.783 170.856V206.53C173.783 209.249 171.499 211.424 168.889 211.424Z" fill="#444444"/>
<path d="M335.401 225.02H319.848C317.129 225.02 314.845 222.845 314.845 220.017V170.966C314.845 168.247 317.02 165.963 319.848 165.963H335.401C338.12 165.963 340.404 168.138 340.404 170.966V220.017C340.404 222.736 338.228 225.02 335.401 225.02Z" fill="#353535"/>
<path d="M335.509 211.424H319.848C317.129 211.424 314.954 209.249 314.954 206.53V170.856C314.954 168.137 317.129 165.962 319.848 165.962H335.509C338.228 165.962 340.404 168.137 340.404 170.856V206.53C340.404 209.249 338.228 211.424 335.509 211.424Z" fill="#444444"/>
<path d="M263.728 76.7782C263.51 76.0168 262.858 75.3643 261.988 75.2555H261.879C250.35 72.754 238.387 72.754 226.749 75.2555H226.641C225.879 75.473 225.227 76.0168 224.9 76.7782L222.073 85.6965L244.369 84.9352L266.556 85.6965L263.728 76.7782Z" fill="#FFDD4D"/>
<path d="M332.899 190.65L332.791 208.704H322.241C311.691 208.704 244.368 208.704 244.368 208.704C244.368 208.704 244.042 208.704 243.607 208.704H155.946V190.65H155.837C155.837 190.65 150.834 176.076 153.445 162.481C154.423 157.26 155.729 153.345 156.816 150.626C158.448 146.711 159.753 145.079 159.753 145.079C160.079 144.644 160.297 144.209 160.623 143.774C165.3 137.466 171.716 130.505 171.716 130.505C178.895 110.385 191.293 91.3515 191.293 91.3515C195.209 88.85 204.127 87.1098 213.589 85.8047C234.036 82.9769 254.809 82.9769 275.256 85.8047C284.61 87.1098 293.528 88.85 297.552 91.3515C297.552 91.3515 309.951 110.493 317.129 130.505C317.129 130.505 323.546 137.466 328.223 143.774C328.549 144.209 328.875 144.644 329.093 145.079C329.093 145.079 330.289 146.493 331.703 149.865C332.899 152.584 334.205 156.716 335.401 162.481C337.902 176.185 332.899 190.65 332.899 190.65Z" fill="#FECE00"/>
<path d="M305.709 129.31C305.709 129.31 321.697 143.448 321.262 145.732C320.936 148.125 312.017 149.974 303.425 155.195C294.833 160.415 273.734 165.092 243.933 165.092C214.133 165.092 193.033 160.524 184.441 155.195C175.849 149.974 167.04 148.016 166.605 145.732C166.278 143.34 182.157 129.31 182.157 129.31" stroke="#F78A37" stroke-width="0.5314" stroke-miterlimit="10"/>
<path opacity="0.4" d="M332.899 190.65L332.791 208.487C332.573 208.596 332.356 208.705 332.138 208.705H322.241C311.691 208.705 244.368 208.705 244.368 208.705C244.368 208.705 244.042 208.705 243.607 208.705H155.946V190.65H155.837C155.837 190.65 150.834 176.076 153.445 162.481C154.423 157.261 155.729 153.346 156.816 150.627C157.143 150.735 157.469 150.844 157.795 150.953C161.493 152.04 167.366 152.04 175.849 156.391C185.964 161.503 196.949 164.874 208.151 166.071C220.115 167.267 234.254 168.463 242.737 168.355H244.368C252.852 168.463 266.991 167.267 278.954 166.071C290.265 164.874 301.141 161.503 311.256 156.391C319.739 152.149 325.612 152.04 329.31 150.953C330.289 150.627 330.942 150.3 331.594 149.865C332.791 152.584 334.096 156.717 335.292 162.481C337.902 176.185 332.899 190.65 332.899 190.65Z" fill="#F9B234"/>
<path d="M306.035 131.376C296.356 130.18 267.208 127.026 244.368 127.026C221.528 127.026 192.381 130.288 182.701 131.376C181.07 131.594 179.873 130.071 180.308 128.548C181.94 123.11 184.332 116.802 186.616 111.147C189.335 104.512 192.054 98.6392 193.468 95.5939C194.121 94.0712 195.426 92.9836 196.949 92.3311C210.761 87.0018 232.513 86.458 244.368 86.458C256.223 86.458 277.975 87.0018 291.788 92.3311C293.31 92.8749 294.507 94.0712 295.268 95.5939C297.878 101.249 304.839 116.693 308.428 128.548C308.863 130.071 307.667 131.594 306.035 131.376Z" fill="#CCF5FF"/>
<path d="M308.428 128.548C306.797 123.11 304.404 116.802 302.12 111.146C295.05 115.17 278.736 121.261 244.368 121.261C210 121.261 193.686 115.17 186.616 111.146C184.332 116.802 181.94 123.001 180.308 128.548C179.873 130.07 181.07 131.593 182.701 131.375C192.381 130.179 221.528 127.025 244.368 127.025C267.208 127.025 296.356 130.288 306.035 131.375C307.667 131.593 308.863 130.07 308.428 128.548Z" fill="#A1E9FF"/>
<path d="M232.401 76.2044H230.509V75.0899H235.66V76.2044H233.768V81H232.401V76.2044ZM239.991 79.7335H237.247L236.723 81H235.322L237.956 75.0899H239.307L241.95 81H240.514L239.991 79.7335ZM239.56 78.6951L238.623 76.4323L237.686 78.6951H239.56ZM245.981 81L244.554 78.9484L243.153 81H241.582L243.769 77.9943L241.692 75.0899H243.246L244.605 77.0065L245.939 75.0899H247.416L245.356 77.9436L247.56 81H245.981ZM248.095 75.0899H249.463V81H248.095V75.0899Z" fill="#5539B4"/>
<path opacity="0.5" d="M174.87 164.983C176.937 169.116 176.719 175.641 172.586 177.708C168.454 179.774 161.928 176.511 159.861 172.378C157.795 168.245 159.535 163.243 163.668 161.285C167.801 159.327 172.804 160.85 174.87 164.983Z" fill="#D18619"/>
<path d="M166.931 176.076C171.496 176.076 175.197 172.376 175.197 167.81C175.197 163.245 171.496 159.545 166.931 159.545C162.366 159.545 158.665 163.245 158.665 167.81C158.665 172.376 162.366 176.076 166.931 176.076Z" fill="#A1E9FF"/>
<path d="M165.408 171.617C168.111 171.617 170.302 169.426 170.302 166.723C170.302 164.02 168.111 161.828 165.408 161.828C162.705 161.828 160.514 164.02 160.514 166.723C160.514 169.426 162.705 171.617 165.408 171.617Z" fill="#CCF5FF"/>
<path opacity="0.5" d="M188.031 175.75C189.336 178.361 189.227 182.602 186.617 183.907C184.007 185.212 179.765 183.146 178.46 180.427C177.155 177.817 178.242 174.554 180.853 173.249C183.572 172.052 186.726 173.14 188.031 175.75Z" fill="#D18619"/>
<path d="M188.357 177.599C188.357 180.535 185.964 182.928 183.027 182.928C180.091 182.928 177.698 180.535 177.698 177.599C177.698 174.662 180.091 172.27 183.027 172.27C185.855 172.27 188.357 174.662 188.357 177.599Z" fill="#A1E9FF"/>
<path d="M185.094 176.946C185.094 178.686 183.68 180.1 181.94 180.1C180.2 180.1 178.786 178.686 178.786 176.946C178.786 175.206 180.2 173.792 181.94 173.792C183.68 173.792 185.094 175.206 185.094 176.946Z" fill="#CCF5FF"/>
<path opacity="0.5" d="M313.54 164.982C311.474 169.115 311.691 175.641 315.824 177.707C319.957 179.774 326.482 176.511 328.549 172.378C330.615 168.245 328.875 163.242 324.742 161.285C320.609 159.218 315.606 160.849 313.54 164.982Z" fill="#D18619"/>
<path d="M321.48 176.076C326.045 176.076 329.745 172.376 329.745 167.81C329.745 163.245 326.045 159.545 321.48 159.545C316.914 159.545 313.214 163.245 313.214 167.81C313.214 172.376 316.914 176.076 321.48 176.076Z" fill="#A1E9FF"/>
<path d="M323.002 171.617C325.705 171.617 327.896 169.426 327.896 166.723C327.896 164.02 325.705 161.829 323.002 161.829C320.299 161.829 318.108 164.02 318.108 166.723C318.108 169.426 320.299 171.617 323.002 171.617Z" fill="#CCF5FF"/>
<path opacity="0.5" d="M300.271 175.75C298.966 178.361 299.075 182.602 301.685 183.907C304.295 185.212 308.537 183.146 309.842 180.427C311.147 177.817 310.059 174.554 307.449 173.249C304.839 172.052 301.576 173.14 300.271 175.75Z" fill="#D18619"/>
<path d="M300.053 177.599C300.053 180.536 302.446 182.928 305.383 182.928C308.319 182.928 310.712 180.536 310.712 177.599C310.712 174.663 308.319 172.27 305.383 172.27C302.446 172.27 300.053 174.663 300.053 177.599Z" fill="#A1E9FF"/>
<path d="M303.208 176.946C303.208 178.686 304.621 180.1 306.362 180.1C308.102 180.1 309.516 178.686 309.516 176.946C309.516 175.206 308.102 173.792 306.362 173.792C304.621 173.792 303.208 175.206 303.208 176.946Z" fill="#CCF5FF"/>
<path d="M240.888 175.641V188.91C240.888 190.324 239.8 191.411 238.386 191.411C232.078 191.303 215.547 190.976 205.106 189.019C202.93 188.584 201.081 187.17 200.103 185.103C199.45 183.798 198.471 182.167 196.949 180.535C194.773 178.143 193.577 174.662 193.033 172.161C192.707 170.747 193.903 169.551 195.208 169.768C201.952 170.747 220.441 173.248 238.386 173.248C239.8 173.14 240.888 174.227 240.888 175.641Z" fill="#3E3E3E"/>
<path d="M246.326 175.641V188.91C246.326 190.324 247.414 191.411 248.827 191.411C255.136 191.303 271.667 190.976 282.108 189.019C284.283 188.584 286.132 187.17 287.111 185.103C287.764 183.798 288.743 182.167 290.265 180.535C292.44 178.143 293.637 174.662 294.181 172.161C294.507 170.747 293.31 169.551 292.005 169.768C285.262 170.747 266.773 173.248 248.827 173.248C247.414 173.14 246.326 174.227 246.326 175.641Z" fill="#3E3E3E"/>
<path d="M334.639 191.629C334.422 190.977 333.661 190.541 332.899 190.65C327.679 191.955 304.948 196.415 244.368 196.415C183.897 196.415 161.058 191.847 155.837 190.65C155.076 190.433 154.423 190.868 154.097 191.629C151.704 198.59 153.771 205.442 155.076 208.596C155.511 209.683 156.49 210.553 157.686 210.88C181.831 217.297 244.26 216.861 244.26 216.861C244.26 216.861 306.797 217.405 330.942 210.88C332.138 210.553 333.117 209.683 333.552 208.596C334.966 205.442 337.032 198.59 334.639 191.629Z" fill="#D18619"/>
<path d="M264.924 211.423H222.29C221.637 211.423 220.985 210.879 220.985 210.118V202.179C220.985 201.526 221.529 200.874 222.29 200.874H264.924C265.577 200.874 266.229 201.417 266.229 202.179V210.118C266.229 210.879 265.577 211.423 264.924 211.423Z" fill="white"/>
<path d="M167.366 135.509C167.475 135.182 168.453 133.442 167.148 132.355C166.822 132.028 166.169 131.92 165.517 131.811C164.429 131.702 163.233 132.137 162.472 133.007C162.037 133.551 161.167 134.095 159.753 134.312C156.599 134.747 149.529 133.442 147.245 131.049C145.94 129.636 145.505 126.808 146.701 124.198C147.571 122.349 149.203 120.717 151.922 119.956C158.339 117.998 166.931 120.065 169.759 122.022C172.586 123.98 173.891 131.049 173.891 131.049L167.366 135.509Z" fill="#FECE00"/>
<path opacity="0.4" d="M167.366 135.508C167.475 135.182 168.453 133.442 167.148 132.354C166.822 132.028 166.169 131.919 165.517 131.81C164.429 131.702 163.233 132.137 162.472 133.007C162.037 133.551 161.167 134.094 159.753 134.312C156.599 134.747 149.529 133.442 147.245 131.049C145.94 129.635 145.505 126.808 146.701 124.197C146.593 124.741 146.049 128.548 152.792 129.853C159.644 131.158 161.167 128.004 163.886 127.895C166.822 127.895 170.737 130.723 167.366 135.508Z" fill="#F9B234"/>
<path d="M321.371 135.509C321.262 135.182 320.392 133.442 321.588 132.355C321.914 132.028 322.567 131.92 323.22 131.811C324.307 131.702 325.503 132.137 326.265 133.007C326.7 133.551 327.57 134.095 328.984 134.312C332.138 134.747 339.207 133.442 341.491 131.049C342.796 129.636 343.231 126.808 342.035 124.198C341.165 122.349 339.534 120.717 336.815 119.956C330.398 117.998 321.806 120.065 318.978 122.022C316.15 123.98 314.845 131.049 314.845 131.049L321.371 135.509Z" fill="#FECE00"/>
<path opacity="0.4" d="M321.371 135.508C321.262 135.182 320.392 133.442 321.588 132.354C321.914 132.028 322.567 131.919 323.22 131.81C324.307 131.702 325.504 132.137 326.265 133.007C326.7 133.551 327.57 134.094 328.984 134.312C332.138 134.747 339.207 133.442 341.491 131.049C342.796 129.635 343.232 126.808 342.035 124.197C342.144 124.741 342.688 128.548 335.945 129.853C329.093 131.158 327.57 128.004 324.851 127.895C321.914 127.895 317.999 130.723 321.371 135.508Z" fill="#F9B234"/>
<path d="M199.341 194.131C199.341 194.131 200.212 216.862 201.843 217.297C203.474 217.732 206.628 217.84 207.172 217.623C208.695 216.862 209.239 194.566 209.239 194.566" fill="#FECE00"/>
<path opacity="0.4" d="M199.341 194.131C199.341 194.131 200.212 216.862 201.843 217.297C203.474 217.732 206.628 217.84 207.172 217.623C208.695 216.862 209.239 194.566 209.239 194.566" fill="#F9B234"/>
<path d="M287.981 194.13C287.981 194.13 287.111 216.861 285.48 217.296C283.848 217.731 280.694 217.84 280.15 217.623C278.628 216.861 278.084 194.565 278.084 194.565" fill="#FECE00"/>
<path opacity="0.4" d="M287.981 194.13C287.981 194.13 287.111 216.861 285.48 217.296C283.848 217.731 280.694 217.84 280.15 217.623C278.628 216.861 278.084 194.565 278.084 194.565" fill="#F9B234"/>
</svg>
