<svg width="32" height="32" viewBox="0 0 32 32" fill="none" xmlns="http://www.w3.org/2000/svg">
<path d="M22.0638 21.7846C23.1011 21.9441 24.0984 22.0638 25.0159 22.2234C25.734 22.3431 26.3723 22.6622 26.9707 23.1808C27.0505 23.2606 27.1702 23.3404 27.25 23.4601C28.4867 24.6968 29.484 26.3723 30.242 28.4069C30.2819 28.4468 30.2819 28.5266 30.3218 28.5665C30.641 29.5638 30.242 30.1622 29.0452 30.3218C28.9255 30.3218 28.8457 30.3617 28.7261 30.3617C26.5718 30.5612 24.3777 30.7207 22.2234 30.8404C20.6277 30.9202 19.0319 30.9601 17.3963 31C16.9574 31 16.5186 31 16.0399 31C15.6011 31 15.1622 31 14.6835 31C12.2899 28.6463 9.97606 26.0133 7.70212 23.1808C7.46276 22.8617 7.2234 22.5426 6.94415 22.2633C5.86702 20.867 4.78989 19.4309 3.71276 17.9149C2.79521 18.5532 1.87766 19.2314 1 19.8697C2.03723 21.3457 3.11436 22.7819 4.19149 24.1782C6.06649 26.5718 7.94148 28.8058 9.85637 30.8803C7.70212 30.7606 5.54787 30.6011 3.35372 30.4016C3.23404 30.4016 3.15425 30.3617 3.03456 30.3617C1.83776 30.2021 1.39893 29.6037 1.75798 28.6064C1.79787 28.5665 1.79786 28.4867 1.83776 28.4468C2.47605 26.7713 3.27394 25.3351 4.19149 24.2181M19.4308 15.4415C19.2713 16 18.9521 16.4787 18.5133 16.9176C17.8351 17.5957 16.9973 17.9149 16.0399 17.9149C15.0824 17.9149 14.2447 17.5957 13.5665 16.9176C13.1277 16.4787 12.8085 16 12.6888 15.4415M6.98404 22.2633C7.02394 22.2633 7.06382 22.2633 7.06382 22.2633C7.94148 22.1037 8.93883 21.984 9.97606 21.8245M18.4335 1.31915C18.3936 1.31915 18.3537 1.27926 18.2739 1.27926C17.7154 1.11968 17.1569 1.03989 16.5585 1C16.4388 1 16.3191 1 16.1995 1C16.1197 1 16.0798 1 16 1C15.9202 1 15.8404 1 15.7606 1C13.5665 1.03989 11.6915 1.87766 10.0558 3.43351C9.97606 3.5133 9.85638 3.63298 9.77659 3.71277L9.7367 3.75266C9.0984 4.43085 8.57979 5.18883 8.18085 5.9867C8.18085 6.0266 8.14095 6.0266 8.14095 6.06649C8.02127 6.30585 7.90159 6.54521 7.8218 6.82447C7.42286 7.90159 7.22339 9.05851 7.22339 10.3351C7.1835 13.4867 7.98138 16.1596 9.53723 18.3537C11.2128 20.7872 13.2473 22.0638 15.6409 22.1436C15.6808 22.1436 15.6808 22.1436 15.7207 22.1436C15.7606 22.1436 15.8404 22.1436 15.9601 22.1436H16C18.4734 22.1835 20.5878 20.9069 22.3431 18.3936C23.9388 16.1596 24.7367 13.4867 24.7367 10.3351C24.7367 9.53723 24.617 8.77926 24.4574 8.06117C24.4574 7.98138 24.4175 7.9016 24.4175 7.8617C24.3777 7.78192 24.3777 7.66223 24.3378 7.58245C23.9388 6.18617 23.2207 4.90957 22.2234 3.79255L22.1835 3.75266C22.1037 3.67287 21.984 3.55319 21.9043 3.47341C20.9069 2.47607 19.7899 1.79787 18.5931 1.39894C18.5931 1.35904 18.5133 1.35904 18.4335 1.31915Z" stroke="#FFA049" stroke-width="2" stroke-miterlimit="3" stroke-linecap="round" stroke-linejoin="round"/>
</svg>
