<svg width="32" height="37" viewBox="0 0 32 37" fill="none" xmlns="http://www.w3.org/2000/svg">
<path d="M8.50001 7.1976L6.88322 4.63771L12.7215 1M8.50001 7.1976C10.7455 5.89521 13.1707 5.26647 15.9551 5.26647M8.50001 7.1976C7.37725 7.87125 6.34431 8.67963 5.40119 9.62275C2.48203 12.5419 1 16.0898 1 20.2216C1 22.512 1.4491 24.5778 2.34731 26.509C3.06587 28.0359 4.0988 29.518 5.40119 30.8204C8.32035 33.7395 11.8683 35.2216 16 35.2216C20.1318 35.2216 23.6796 33.7395 26.5988 30.8204C27.9012 29.518 28.9341 28.0808 29.6527 26.509C30.5509 24.5778 31 22.512 31 20.2216C31 16.0898 29.518 12.5419 26.5988 9.62275C25.6108 8.67963 24.5778 7.82634 23.4551 7.1976L24.9371 4.63771L19.8623 1M15.9551 5.26647V1H12.7215M15.9551 5.26647C18.7395 5.26647 22.0629 6.66581 23.4551 7.24251C23.4551 7.24251 20.985 6.27843 20.5359 6.13667C18.515 5.26647 15.9551 5.26647 15.9551 5.26647ZM12.7215 1H19.8623M11.4193 12.2275L10.072 9.89221M5.67081 14.2485L8.00614 15.5958M19.8623 1H16.0451M16.0451 8.27544V10.9251M24.084 15.5958L26.4193 14.2485M22.0181 9.8473L20.6708 12.1826M25.3415 20.2216H27.9912M24.084 24.8922L26.4193 26.2395M15.0121 21.3892L13.6648 22.8263M16.0451 29.5629V32.2126M20.6708 28.2605L22.063 30.5958M5.62591 26.2395L8.00614 24.8473M6.74866 20.2216H4.05405M11.3744 28.3054L10.0271 30.6407M22.0629 13.8892L17.0329 19.0988M17.482 20.2216C17.482 19.8174 17.3473 19.4132 17.0329 19.1437C16.7186 18.8293 16.3593 18.6946 15.9102 18.6946C15.4611 18.6946 15.1018 18.8293 14.7874 19.1437C14.4731 19.4581 14.3383 19.8174 14.3383 20.2665C14.3383 20.7156 14.4731 21.0749 14.7874 21.3892L14.8323 21.4341C15.1467 21.7036 15.4611 21.8383 15.8653 21.8383C16.3144 21.8383 16.6736 21.7036 16.988 21.3892C17.3473 21.0299 17.482 20.6707 17.482 20.2216Z" stroke="#FFA049" stroke-width="2" stroke-miterlimit="3" stroke-linecap="round" stroke-linejoin="round"/>
</svg>
