<svg width="36" height="32" viewBox="0 0 36 32" fill="none" xmlns="http://www.w3.org/2000/svg">
<path fill-rule="evenodd" clip-rule="evenodd" d="M33.3309 1V7.30216H27.0288V13.6043H20.7266V7.30216H14.4676V13.6043H8.16546V7.30216H1.86331V1H8.16546V7.30216H14.4676V1H20.7698V7.30216H27.0719V1H33.3309ZM21.1583 19.7338L16.6691 21.3741C21.1151 22.1511 24.3094 21.9353 26.2518 20.6835C31.4748 17.3165 34.2374 16.8849 34.5396 19.3885C31.6043 21.9353 28.5396 24.0935 25.3885 25.9065C23.1007 27.2014 20.3813 27.7194 17.1871 27.5468L13.3885 27.2878C11.9209 27.1583 10.6259 27.5468 9.58993 28.5396L6.8705 31L1 25.1295C3.20144 20.9424 6.05036 18.6115 9.46043 18.0935L22.1079 16.1942C23.1007 16.1511 23.6187 16.5827 23.6619 17.4892C23.705 18.3094 22.8849 19.0863 21.1583 19.7338Z" stroke="#FFA049" stroke-width="2" stroke-miterlimit="3" stroke-linecap="round" stroke-linejoin="round"/>
</svg>
