<svg width="295" height="349" viewBox="0 0 295 349" fill="none" xmlns="http://www.w3.org/2000/svg">
<path d="M155.479 216.22C155.311 218.405 155.143 220.253 154.806 221.765C154.302 224.958 152.958 229.999 151.278 235.545C150.941 236.721 150.605 237.729 150.269 238.906C146.572 251.341 144.892 264.112 145.396 277.051C146.404 299.233 138.338 336.538 137.162 340.067C135.146 342.756 131.281 340.907 129.768 340.403C128.088 315.701 124.895 262.096 125.063 260.919C125.735 235.545 128.76 212.187 129.096 208.49C129.432 204.793 129.768 183.956 131.449 183.284C135.314 181.771 145.564 178.411 150.269 185.132C155.311 192.19 156.151 206.81 155.479 216.22Z" fill="#5539B4"/>
<path d="M155.478 216.22C155.31 218.405 155.142 220.253 154.806 221.766C154.302 224.958 152.958 230 151.277 235.545C150.773 227.479 149.933 205.297 149.933 205.297L155.478 216.22Z" fill="#3A2A87"/>
<path d="M199.674 334.522C199.674 337.042 199.505 338.387 192.784 338.387C193.456 339.395 168.418 282.093 164.721 271.338C164.553 270.666 163.544 267.809 163.208 266.801C161.36 261.255 155.478 232.52 152.79 221.429L144.892 185.468C144.892 185.468 134.137 186.981 141.867 186.477C151.782 185.804 164.049 180.931 164.049 180.931C180.517 194.879 182.029 211.011 181.357 219.077C181.021 222.438 181.189 236.385 181.189 240.25C180.685 253.693 183.037 267.305 188.583 279.572C197.993 301.249 198.833 327.296 199.674 334.522Z" fill="#5539B4"/>
<path d="M204.043 340.571C203.37 341.411 201.354 342.419 199.842 343.091C199.001 343.427 196.145 345.108 193.288 346.788C192.112 347.46 190.935 347.797 189.591 347.797H184.886C184.046 347.797 183.71 347.124 183.71 346.788C183.71 345.78 184.55 344.94 185.894 344.772C186.23 344.772 186.566 344.604 186.902 344.436C188.415 343.932 189.591 342.755 190.599 341.411C191.439 340.067 192.112 338.89 192.112 338.89C193.792 337.042 196.145 337.546 196.145 337.546C199.169 336.034 199.505 334.689 199.505 334.689C202.194 335.193 204.715 339.73 204.043 340.571Z" fill="#012851"/>
<path d="M137.498 340.067C137.498 340.067 136.49 341.075 133.129 340.907C133.129 340.907 131.28 339.395 128.928 340.235C128.928 340.235 125.567 343.26 123.046 343.764C120.694 344.268 117.837 344.604 117.165 345.612C116.493 346.621 116.829 347.293 116.829 347.293C116.829 347.293 116.661 347.797 119.685 347.797C122.542 347.965 132.121 347.461 133.633 347.629C135.313 347.629 137.498 347.797 138.506 347.461C139.514 347.125 139.346 341.915 137.498 340.067Z" fill="#012851"/>
<path d="M232.105 343.26C232.61 345.277 231.433 347.461 229.417 347.965C227.4 348.47 225.216 347.293 224.712 345.277C224.207 343.26 225.384 341.076 227.4 340.572C229.585 340.067 231.601 341.244 232.105 343.26Z" fill="#353535"/>
<path d="M213.957 259.743L200.177 263.44L186.734 213.364C186.566 212.692 186.902 211.851 187.742 211.683L199.001 208.658C199.673 208.49 200.514 208.827 200.682 209.667L213.957 259.743Z" stroke="#2D287C" stroke-width="0.8474" stroke-miterlimit="10"/>
<path d="M226.896 257.054L247.565 334.186C248.07 336.37 246.893 338.555 244.709 339.059L219.67 345.781C218.494 346.117 217.486 345.445 217.15 344.268L195.472 263.608C195.136 262.432 195.808 261.255 196.985 261.087L222.023 254.366C224.208 253.694 226.392 254.87 226.896 257.054Z" fill="#FCC000"/>
<path d="M226.896 257.054L247.566 334.186C248.07 336.37 246.893 338.555 244.709 339.059L229.081 343.26C227.905 343.596 226.728 342.924 226.56 341.748L204.883 261.087C204.547 259.911 205.219 258.735 206.395 258.567L222.023 254.366C224.208 253.694 226.392 254.87 226.896 257.054Z" fill="#FECE00"/>
<path d="M233.45 281.589L223.704 284.278C223.2 284.446 222.528 284.11 222.36 283.605L222.192 283.269C222.023 282.765 222.36 282.093 222.864 281.925L232.61 279.236L233.45 281.589Z" fill="#FCC000"/>
<path d="M236.139 291.335L226.392 294.023C225.888 294.191 225.216 293.855 225.048 293.351L224.88 293.015C224.712 292.511 225.048 291.839 225.552 291.671L235.299 288.982L236.139 291.335Z" fill="#FCC000"/>
<path d="M238.827 301.082L229.081 303.77C228.577 303.938 227.904 303.602 227.736 303.098L227.568 302.762C227.4 302.258 227.736 301.586 228.241 301.418L237.987 298.729L238.827 301.082Z" fill="#FCC000"/>
<path d="M241.348 310.996L231.601 313.685C231.097 313.853 230.425 313.517 230.257 313.013L230.089 312.677C229.921 312.173 230.257 311.501 230.761 311.332L240.507 308.644L241.348 310.996Z" fill="#FCC000"/>
<path d="M244.037 320.742L234.29 323.431C233.786 323.599 233.114 323.263 232.946 322.759L232.778 322.423C232.61 321.919 232.946 321.246 233.45 321.078L243.196 318.39L244.037 320.742Z" fill="#FCC000"/>
<path d="M175.307 153.036C174.971 154.717 174.466 157.237 173.962 159.926C172.45 167.488 170.769 177.066 170.769 180.091C170.769 181.099 170.938 181.94 171.106 182.612C171.61 184.796 172.618 185.973 171.946 186.813C171.442 187.485 170.265 187.989 168.585 188.325C168.081 188.493 167.409 188.661 166.905 188.661C161.191 189.838 152.117 197.231 147.412 196.055C132.792 192.358 129.599 188.997 129.767 186.813C130.271 182.444 130.943 175.554 130.943 162.279C130.943 142.618 129.599 116.907 131.112 115.227C134.136 112.706 138.673 110.354 143.379 108.841C146.739 108.337 152.285 108.505 158.334 110.017C165.224 111.866 173.29 113.378 174.466 115.899C175.811 118.756 176.987 144.298 175.307 153.036Z" fill="#00B8F0"/>
<path d="M191.943 199.584C191.943 199.584 192.111 203.617 191.943 204.289C191.775 204.962 188.078 208.49 188.078 210.675C188.078 210.675 188.75 211.851 190.094 212.524C191.607 213.196 195.136 212.86 196.816 212.019C198.665 211.347 198.833 207.65 198.833 207.146C198.833 206.642 198.328 202.441 198.664 200.088" fill="#FFD5B0"/>
<path d="M189.423 207.482C189.423 207.482 187.742 209.666 187.574 211.179C187.406 212.523 187.238 212.859 187.91 212.859C188.583 212.859 189.591 212.187 190.095 211.011" fill="#FFD5B0"/>
<path d="M169.257 133.543C172.282 141.105 185.053 160.094 185.053 160.094L191.439 202.777C191.439 202.777 192.615 203.449 194.968 203.449C197.152 203.449 199.673 202.609 199.673 202.609C199.673 202.609 202.698 161.102 200.009 153.54C196.984 145.306 188.75 124.301 175.811 116.067C170.77 112.874 160.519 110.858 160.519 110.858" fill="#00B8F0"/>
<path d="M173.627 161.606C173.627 161.606 169.426 178.579 180.012 200.76C180.012 200.76 164.216 203.281 148.588 204.625C132.96 205.97 127.079 201.937 127.079 201.937C127.079 201.937 129.936 185.805 130.272 182.276C130.608 178.747 149.933 173.537 149.933 173.537" fill="#00B8F0"/>
<path d="M72.1289 139.761L66.4155 138.417C66.4155 138.417 65.2392 137.745 63.3907 135.56C61.3742 133.376 58.6856 133.544 58.0134 133.712C57.5093 133.712 57.3412 134.552 58.3495 135.224C59.0216 135.728 60.198 135.392 60.7021 137.073C60.8701 137.745 58.8536 137.745 57.8453 137.409C56.8371 137.072 53.3082 135.392 52.3 135.056C51.4598 134.72 50.6195 135.224 52.9721 137.073C55.1567 138.753 55.9969 139.089 56.8371 139.593C56.8371 139.593 57.3412 140.601 57.6773 141.106C57.8453 141.274 57.8454 141.274 58.1815 141.442C58.3495 141.778 58.6856 142.45 59.0217 142.786L59.1897 142.954C59.3577 143.458 59.6938 143.794 59.8619 144.298C60.534 145.811 63.3908 145.307 64.7351 145.139C65.9114 144.97 71.4568 146.147 71.4568 146.147L72.1289 139.761Z" fill="#FFD5B0"/>
<path d="M58.3497 139.257C58.3497 139.257 56.8373 139.257 54.8208 138.585C52.6363 137.913 49.9476 136.4 49.4435 136.232C48.9393 136.232 48.7713 136.905 49.4435 137.409C50.1156 137.913 51.7961 138.921 52.8043 139.425C53.9806 139.929 59.0219 141.274 59.0219 141.274" fill="#FFD5B0"/>
<path d="M59.1899 140.769C59.1899 140.769 57.6776 140.937 55.493 140.433C53.3085 139.929 50.4517 138.753 49.9476 138.753C49.4435 138.753 49.4435 139.425 50.1157 139.929C50.7878 140.433 52.6363 141.274 53.6446 141.61C54.8208 142.114 60.0301 143.29 60.0301 143.29" fill="#FFD5B0"/>
<path d="M60.8705 142.954C60.8705 142.954 59.3581 143.122 57.1736 142.618C54.989 142.114 52.1323 140.938 51.6281 140.938C51.124 140.938 51.124 141.61 51.7962 142.114C52.4684 142.618 54.3168 143.458 55.3251 143.794C56.5014 144.298 61.7107 144.971 61.7107 144.971" fill="#FFD5B0"/>
<path d="M132.793 139.089C132.12 139.593 131.28 140.097 130.272 140.769C130.272 140.769 122.038 148.331 114.476 153.036C111.115 155.053 107.922 156.565 105.57 156.565C96.1593 156.565 69.1046 146.147 69.1046 146.147L70.2808 139.257L103.721 142.114C110.779 133.544 131.28 115.563 131.28 115.563L132.625 134.384L132.793 139.089Z" fill="#00B8F0"/>
<path d="M130.272 140.77C129.263 141.61 121.701 148.499 114.476 152.869C119.853 147.995 127.247 139.761 130.103 136.232C130.272 137.745 130.272 139.257 130.272 140.77Z" fill="#0096D1"/>
<path d="M158.502 110.353C158.502 110.353 151.781 115.395 143.547 109.177C143.547 109.177 144.555 107.161 144.723 106.825C145.227 105.984 146.067 104.304 146.571 101.951C146.571 101.783 146.571 101.615 146.739 101.447C146.907 100.775 147.075 99.9348 147.075 99.0946C147.243 97.5822 147.243 96.0698 146.907 94.2214L147.748 93.5492L160.855 83.2986L162.367 82.1223C162.367 82.1223 161.863 84.6429 161.359 88.3399C161.023 90.3564 160.687 92.877 160.183 95.3976C159.511 100.439 158.838 106.152 158.502 110.353Z" fill="#FFD5B0"/>
<path d="M156.486 95.3975C154.637 98.0862 150.268 103.632 144.723 106.656C145.227 105.816 146.067 104.136 146.571 101.783C145.731 102.119 144.891 102.119 144.219 102.287C144.219 101.615 144.219 101.111 144.219 100.439L145.059 99.9346L147.075 98.9264L157.494 93.8851C157.494 93.7171 157.158 94.3892 156.486 95.3975Z" fill="#FFB985"/>
<path d="M135.649 74.0562C135.649 74.0562 133.296 80.2737 137.497 83.8026L139.514 74.2242L135.649 74.0562Z" fill="#3F49A5"/>
<path d="M158.502 92.8771C157.83 93.8853 157.158 94.7256 156.318 95.5658C154.973 96.9101 153.629 98.2544 152.117 99.2627C150.1 100.607 148.252 101.447 146.571 101.783C145.731 102.119 144.891 102.119 144.219 102.287C140.69 102.624 138.673 101.279 138.673 101.279C135.48 96.406 135.481 88.508 136.321 82.6265C136.657 80.2739 136.993 78.0894 137.329 76.577C137.665 75.2327 137.833 74.3924 137.833 74.3924V74.2244C139.177 66.4945 149.596 66.1584 156.654 70.5275C156.99 70.8636 157.494 71.0316 157.83 71.3677C159.847 72.712 161.359 74.5605 162.367 76.7451C164.048 80.442 163.039 84.475 161.359 88.0039C161.191 88.1719 161.191 88.34 161.023 88.508C160.351 90.1884 159.343 91.5328 158.502 92.8771Z" fill="#FFD5B0"/>
<path d="M159.007 69.8554C159.007 69.8554 150.604 82.7946 136.489 76.0729C132.288 74.0564 131.448 60.1089 135.144 62.7976C142.538 68.511 148.42 57.5883 155.478 61.2852C157.662 62.4615 160.015 65.4863 159.007 69.8554Z" fill="#3F49A5"/>
<path d="M156.15 71.5356C156.15 71.5356 151.277 97.0781 156.486 85.3151C156.486 85.3151 157.83 82.1223 160.183 82.2904C162.535 82.6264 160.687 91.3646 160.351 95.0616C160.351 95.0616 165.728 91.1966 167.745 79.6017C169.761 68.0067 162.031 63.3016 157.662 68.3428L156.15 71.5356Z" fill="#3F49A5"/>
<path d="M159.679 84.1389C159.679 84.1389 158.335 84.307 157.998 86.8276C157.662 89.3482 159.343 89.6843 159.679 88.508C160.015 87.1637 158.839 86.4915 158.503 86.9956C158.503 86.9956 158.166 85.4833 159.679 84.1389Z" fill="#FFB985"/>
<path d="M159.847 34.9027C162.032 31.7099 162.704 27.5088 161.192 23.1397C160.015 19.9469 157.495 17.5943 154.302 16.418C145.564 13.2252 137.33 19.6108 137.33 28.0129C137.33 30.5336 138.17 33.0542 139.514 35.0707C140.018 35.9109 140.69 36.5831 141.363 37.2553L149.261 45.1532C149.429 45.3213 149.765 45.3213 150.101 45.1532L157.999 37.2553C158.671 36.4151 159.175 35.7429 159.847 34.9027ZM151.277 25.1562C151.613 25.3243 151.949 25.6603 152.285 26.1645C153.966 29.1892 150.941 32.382 147.748 30.7016C147.412 30.5336 147.076 30.1975 146.74 29.6934C145.228 26.6686 148.252 23.4758 151.277 25.1562Z" fill="#FC5475"/>
<path d="M230.578 70.3895H197.546C195.47 70.3895 193.959 68.6907 193.959 66.8032V43.5863C193.959 41.51 195.658 40 197.546 40H230.578C232.654 40 234.164 41.6988 234.164 43.5863V66.8032C234.164 68.8795 232.654 70.3895 230.578 70.3895Z" fill="#6CE3FF"/>
<path d="M202.453 68.1243C202.453 68.1243 203.774 79.6383 196.602 80.7709C196.602 80.7709 210.57 83.9797 210.192 68.1243" fill="#6CE3FF"/>
<path d="M178.53 93.4423C178.53 94.7636 177.586 95.7074 176.265 95.7074C174.944 95.7074 174 94.7636 174 93.4423C174 92.121 174.944 91.1772 176.265 91.1772C177.586 91.1772 178.53 92.121 178.53 93.4423Z" fill="#EEFAFF"/>
<path d="M190.421 93.4423C190.421 94.7636 189.478 95.7074 188.156 95.7074C186.835 95.7074 185.891 94.7636 185.891 93.4423C185.891 92.121 186.835 91.1772 188.156 91.1772C189.289 91.1772 190.421 92.121 190.421 93.4423Z" fill="#EEFAFF"/>
<path d="M202.124 93.4423C202.124 94.7636 201.181 95.7074 199.859 95.7074C198.538 95.7074 197.594 94.7636 197.594 93.4423C197.594 92.121 198.538 91.1772 199.859 91.1772C201.181 91.1772 202.124 92.121 202.124 93.4423Z" fill="#EEFAFF"/>
</svg>
