<svg width="1440" height="178" viewBox="0 0 1440 178" fill="none" xmlns="http://www.w3.org/2000/svg">
<g opacity="0.8">
<path d="M173.479 133.023V52.7681H142.64V133.023H84.589V176.711H172.313V176.832H195.119V132.903H173.479V133.023ZM169.462 100.801H146.657V98.6283H169.462V100.801ZM169.462 96.4559H146.657V94.2836H169.462V96.4559ZM169.462 92.1113H146.657V89.939H169.462V92.1113ZM169.462 87.7666H146.657V85.5943H169.462V87.7666ZM169.462 83.422H146.657V81.2497H169.462V83.422ZM169.462 79.0773H146.657V76.905H169.462V79.0773ZM169.462 74.7327H146.657V72.5604H169.462V74.7327ZM169.462 70.388H146.657V68.2157H169.462V70.388ZM169.462 66.0434H146.657V63.8711H169.462V66.0434ZM169.462 61.6987H146.657V59.5264H169.462V61.6987ZM169.462 57.3541H146.657V55.1818H169.462V57.3541Z" fill="#F0DDD2"/>
<path d="M221.886 132.748V51.1913H218.132V42.9062H190.946V51.1913H187.321V153.849H160.654V107.375H121.817V168.348H102.917V59.088H64.598V142.975H60.0671V93.0052H53.0765L33.7877 82.7783V93.0052H29.5157V154.755H20.195V71.2568H10.7447V42H9.45019V71.2568H0V176.763H247V132.877H221.886V132.748ZM17.9942 124.722H2.33017V122.909H17.9942V124.722ZM17.9942 120.579H2.33017V118.767H17.9942V120.579ZM17.9942 116.307H2.33017V114.495H17.9942V116.307ZM17.9942 112.165H2.33017V110.352H17.9942V112.165ZM17.9942 107.893H2.33017V106.08H17.9942V107.893ZM17.9942 103.75H2.33017V101.938H17.9942V103.75ZM17.9942 99.478H2.33017V97.6656H17.9942V99.478ZM17.9942 95.3354H2.33017V93.5231H17.9942V95.3354ZM17.9942 91.1929H2.33017V89.3805H17.9942V91.1929ZM17.9942 86.9209H2.33017V85.1085H17.9942V86.9209ZM17.9942 82.7783H2.33017V80.9659H17.9942V82.7783ZM17.9942 78.5063H2.33017V76.6939H17.9942V78.5063ZM17.9942 74.3637H2.33017V72.5514H17.9942V74.3637ZM72.8831 99.3485H68.2228V94.6882H72.8831V99.3485ZM72.8831 91.5812H68.2228V86.9209H72.8831V91.5812ZM72.8831 83.8139H68.2228V79.1536H72.8831V83.8139ZM72.8831 76.0466H68.2228V71.3863H72.8831V76.0466ZM72.8831 68.2794H68.2228V63.619H72.8831V68.2794ZM81.6861 99.3485H77.0257V94.6882H81.6861V99.3485ZM81.6861 91.5812H77.0257V86.9209H81.6861V91.5812ZM81.6861 83.8139H77.0257V79.1536H81.6861V83.8139ZM81.6861 76.0466H77.0257V71.3863H81.6861V76.0466ZM81.6861 68.2794H77.0257V63.619H81.6861V68.2794ZM90.489 99.3485H85.8286V94.6882H90.489V99.3485ZM90.489 91.5812H85.8286V86.9209H90.489V91.5812ZM90.489 83.8139H85.8286V79.1536H90.489V83.8139ZM90.489 76.0466H85.8286V71.3863H90.489V76.0466ZM90.489 68.2794H85.8286V63.619H90.489V68.2794ZM99.4214 99.3485H94.761V94.6882H99.4214V99.3485ZM99.4214 91.5812H94.761V86.9209H99.4214V91.5812ZM99.4214 83.8139H94.761V79.1536H99.4214V83.8139ZM99.4214 76.0466H94.761V71.3863H99.4214V76.0466ZM226.676 171.067H221.886V166.277H226.676V171.067ZM226.676 161.357H221.886V156.568H226.676V161.357ZM226.676 151.648H221.886V146.858H226.676V151.648ZM226.676 142.069H221.886V137.279H226.676V142.069ZM235.737 171.067H230.948V166.277H235.737V171.067ZM235.737 161.357H230.948V156.568H235.737V161.357ZM235.737 151.648H230.948V146.858H235.737V151.648ZM235.737 142.069H230.948V137.279H235.737V142.069ZM244.67 171.067H239.88V166.277H244.67V171.067ZM244.67 161.357H239.88V156.568H244.67V161.357ZM244.67 151.648H239.88V146.858H244.67V151.648ZM244.67 142.069H239.88V137.279H244.67V142.069Z" fill="#F2D1BF"/>
<path d="M99.4213 156.827H94.761V161.487H99.4213V156.827Z" fill="#FFF6ED"/>
<path d="M72.8832 164.594H68.2229V169.255H72.8832V164.594Z" fill="#FFF6ED"/>
<path d="M81.6861 164.594H77.0258V169.255H81.6861V164.594Z" fill="#FFF6ED"/>
<path d="M90.4892 164.594H85.8289V169.255H90.4892V164.594Z" fill="#FFF6ED"/>
<path d="M99.4213 164.594H94.761V169.255H99.4213V164.594Z" fill="#FFF6ED"/>
<path d="M99.4213 79.1538H94.761V83.8142H99.4213V79.1538Z" fill="#FFF6ED"/>
<path d="M72.8832 86.9214H68.2229V91.5818H72.8832V86.9214Z" fill="#FFF6ED"/>
<path d="M81.6861 86.9214H77.0258V91.5818H81.6861V86.9214Z" fill="#FFF6ED"/>
<path d="M90.4892 86.9214H85.8289V91.5818H90.4892V86.9214Z" fill="#FFF6ED"/>
<path d="M99.4213 86.9214H94.761V91.5818H99.4213V86.9214Z" fill="#FFF6ED"/>
<path d="M72.8832 94.6885H68.2229V99.3489H72.8832V94.6885Z" fill="#FFF6ED"/>
<path d="M81.6861 94.6885H77.0258V99.3489H81.6861V94.6885Z" fill="#FFF6ED"/>
<path d="M90.4892 94.6885H85.8289V99.3489H90.4892V94.6885Z" fill="#FFF6ED"/>
<path d="M99.4213 94.6885H94.761V99.3489H99.4213V94.6885Z" fill="#FFF6ED"/>
<path d="M72.8832 102.456H68.2229V107.116H72.8832V102.456Z" fill="#FFF6ED"/>
<path d="M81.6861 102.456H77.0258V107.116H81.6861V102.456Z" fill="#FFF6ED"/>
<path d="M90.4892 102.456H85.8289V107.116H90.4892V102.456Z" fill="#FFF6ED"/>
<path d="M99.4213 102.456H94.761V107.116H99.4213V102.456Z" fill="#FFF6ED"/>
<path d="M72.8832 110.223H68.2229V114.884H72.8832V110.223Z" fill="#FFF6ED"/>
<path d="M81.6861 110.223H77.0258V114.884H81.6861V110.223Z" fill="#FFF6ED"/>
<path d="M90.4892 110.223H85.8289V114.884H90.4892V110.223Z" fill="#FFF6ED"/>
<path d="M99.4213 110.223H94.761V114.884H99.4213V110.223Z" fill="#FFF6ED"/>
<path d="M72.8832 117.99H68.2229V122.651H72.8832V117.99Z" fill="#FFF6ED"/>
<path d="M81.6861 117.99H77.0258V122.651H81.6861V117.99Z" fill="#FFF6ED"/>
<path d="M90.4892 117.99H85.8289V122.651H90.4892V117.99Z" fill="#FFF6ED"/>
<path d="M99.4213 117.99H94.761V122.651H99.4213V117.99Z" fill="#FFF6ED"/>
<path d="M72.8832 125.757H68.2229V130.418H72.8832V125.757Z" fill="#FFF6ED"/>
<path d="M81.6861 125.757H77.0258V130.418H81.6861V125.757Z" fill="#FFF6ED"/>
<path d="M90.4892 125.757H85.8289V130.418H90.4892V125.757Z" fill="#FFF6ED"/>
<path d="M99.4213 125.757H94.761V130.418H99.4213V125.757Z" fill="#FFF6ED"/>
<path d="M72.8832 133.525H68.2229V138.186H72.8832V133.525Z" fill="#FFF6ED"/>
<path d="M81.6861 133.525H77.0258V138.186H81.6861V133.525Z" fill="#FFF6ED"/>
<path d="M90.4892 133.525H85.8289V138.186H90.4892V133.525Z" fill="#FFF6ED"/>
<path d="M99.4213 133.525H94.761V138.186H99.4213V133.525Z" fill="#FFF6ED"/>
<path d="M72.8832 141.292H68.2229V145.952H72.8832V141.292Z" fill="#FFF6ED"/>
<path d="M81.6861 141.292H77.0258V145.952H81.6861V141.292Z" fill="#FFF6ED"/>
<path d="M90.4892 141.292H85.8289V145.952H90.4892V141.292Z" fill="#FFF6ED"/>
<path d="M99.4213 141.292H94.761V145.952H99.4213V141.292Z" fill="#FFF6ED"/>
<path d="M72.8832 149.059H68.2229V153.719H72.8832V149.059Z" fill="#FFF6ED"/>
<path d="M81.6861 149.059H77.0258V153.719H81.6861V149.059Z" fill="#FFF6ED"/>
<path d="M90.4892 149.059H85.8289V153.719H90.4892V149.059Z" fill="#FFF6ED"/>
<path d="M99.4213 149.059H94.761V153.719H99.4213V149.059Z" fill="#FFF6ED"/>
<path d="M72.8832 156.827H68.2229V161.487H72.8832V156.827Z" fill="#FFF6ED"/>
<path d="M81.6861 156.827H77.0258V161.487H81.6861V156.827Z" fill="#FFF6ED"/>
<path d="M90.4892 156.827H85.8289V161.487H90.4892V156.827Z" fill="#FFF6ED"/>
<path d="M72.8834 63.6191H68.223V68.2795H72.8834V63.6191Z" fill="#FFF6ED"/>
<path d="M81.6861 63.6191H77.0258V68.2795H81.6861V63.6191Z" fill="#FFF6ED"/>
<path d="M90.4892 63.6191H85.8289V68.2795H90.4892V63.6191Z" fill="#FFF6ED"/>
<path d="M72.8832 71.3872H68.2229V76.0476H72.8832V71.3872Z" fill="#FFF6ED"/>
<path d="M81.6861 71.3872H77.0258V76.0476H81.6861V71.3872Z" fill="#FFF6ED"/>
<path d="M90.4892 71.3872H85.8289V76.0476H90.4892V71.3872Z" fill="#FFF6ED"/>
<path d="M99.4213 71.3872H94.761V76.0476H99.4213V71.3872Z" fill="#FFF6ED"/>
<path d="M72.8832 79.1538H68.2229V83.8142H72.8832V79.1538Z" fill="#FFF6ED"/>
<path d="M81.6861 79.1538H77.0258V83.8142H81.6861V79.1538Z" fill="#FFF6ED"/>
<path d="M90.4892 79.1538H85.8289V83.8142H90.4892V79.1538Z" fill="#FFF6ED"/>
<path d="M268.639 133.023V52.7681H299.479V133.023H357.53V176.711H269.806V176.832H247V132.903H268.639V133.023ZM272.656 100.801H295.462V98.6283H272.656V100.801ZM272.656 96.4559H295.462V94.2836H272.656V96.4559ZM272.656 92.1113H295.462V89.939H272.656V92.1113ZM272.656 87.7666H295.462V85.5943H272.656V87.7666ZM272.656 83.422H295.462V81.2497H272.656V83.422ZM272.656 79.0773H295.462V76.905H272.656V79.0773ZM272.656 74.7327H295.462V72.5604H272.656V74.7327ZM272.656 70.388H295.462V68.2157H272.656V70.388ZM272.656 66.0434H295.462V63.8711H272.656V66.0434ZM272.656 61.6987H295.462V59.5264H272.656V61.6987ZM272.656 57.3541H295.462V55.1818H272.656V57.3541Z" fill="#F0DDD2"/>
<path d="M342.697 156.827H347.358V161.487H342.697V156.827Z" fill="#FFF6ED"/>
<path d="M369.236 164.594H373.896V169.255H369.236V164.594Z" fill="#FFF6ED"/>
<path d="M360.433 164.594H365.093V169.255H360.433V164.594Z" fill="#FFF6ED"/>
<path d="M351.63 164.594H356.29V169.255H351.63V164.594Z" fill="#FFF6ED"/>
<path d="M342.697 164.594H347.358V169.255H342.697V164.594Z" fill="#FFF6ED"/>
<path d="M342.697 79.1538H347.358V83.8142H342.697V79.1538Z" fill="#FFF6ED"/>
<path d="M369.236 86.9214H373.896V91.5818H369.236V86.9214Z" fill="#FFF6ED"/>
<path d="M360.433 86.9214H365.093V91.5818H360.433V86.9214Z" fill="#FFF6ED"/>
<path d="M351.63 86.9214H356.29V91.5818H351.63V86.9214Z" fill="#FFF6ED"/>
<path d="M342.697 86.9214H347.358V91.5818H342.697V86.9214Z" fill="#FFF6ED"/>
<path d="M369.236 94.6885H373.896V99.3489H369.236V94.6885Z" fill="#FFF6ED"/>
<path d="M360.433 94.6885H365.093V99.3489H360.433V94.6885Z" fill="#FFF6ED"/>
<path d="M351.63 94.6885H356.29V99.3489H351.63V94.6885Z" fill="#FFF6ED"/>
<path d="M342.697 94.6885H347.358V99.3489H342.697V94.6885Z" fill="#FFF6ED"/>
<path d="M369.236 102.456H373.896V107.116H369.236V102.456Z" fill="#FFF6ED"/>
<path d="M360.433 102.456H365.093V107.116H360.433V102.456Z" fill="#FFF6ED"/>
<path d="M351.63 102.456H356.29V107.116H351.63V102.456Z" fill="#FFF6ED"/>
<path d="M342.697 102.456H347.358V107.116H342.697V102.456Z" fill="#FFF6ED"/>
<path d="M369.236 110.223H373.896V114.884H369.236V110.223Z" fill="#FFF6ED"/>
<path d="M360.433 110.223H365.093V114.884H360.433V110.223Z" fill="#FFF6ED"/>
<path d="M351.63 110.223H356.29V114.884H351.63V110.223Z" fill="#FFF6ED"/>
<path d="M342.697 110.223H347.358V114.884H342.697V110.223Z" fill="#FFF6ED"/>
<path d="M369.236 117.99H373.896V122.651H369.236V117.99Z" fill="#FFF6ED"/>
<path d="M360.433 117.99H365.093V122.651H360.433V117.99Z" fill="#FFF6ED"/>
<path d="M351.63 117.99H356.29V122.651H351.63V117.99Z" fill="#FFF6ED"/>
<path d="M342.697 117.99H347.358V122.651H342.697V117.99Z" fill="#FFF6ED"/>
<path d="M369.236 125.757H373.896V130.418H369.236V125.757Z" fill="#FFF6ED"/>
<path d="M360.433 125.757H365.093V130.418H360.433V125.757Z" fill="#FFF6ED"/>
<path d="M351.63 125.757H356.29V130.418H351.63V125.757Z" fill="#FFF6ED"/>
<path d="M342.697 125.757H347.358V130.418H342.697V125.757Z" fill="#FFF6ED"/>
<path d="M369.236 133.525H373.896V138.186H369.236V133.525Z" fill="#FFF6ED"/>
<path d="M360.433 133.525H365.093V138.186H360.433V133.525Z" fill="#FFF6ED"/>
<path d="M351.63 133.525H356.29V138.186H351.63V133.525Z" fill="#FFF6ED"/>
<path d="M342.697 133.525H347.358V138.186H342.697V133.525Z" fill="#FFF6ED"/>
<path d="M369.236 141.292H373.896V145.952H369.236V141.292Z" fill="#FFF6ED"/>
<path d="M360.433 141.292H365.093V145.952H360.433V141.292Z" fill="#FFF6ED"/>
<path d="M351.63 141.292H356.29V145.952H351.63V141.292Z" fill="#FFF6ED"/>
<path d="M342.697 141.292H347.358V145.952H342.697V141.292Z" fill="#FFF6ED"/>
<path d="M369.236 149.059H373.896V153.719H369.236V149.059Z" fill="#FFF6ED"/>
<path d="M360.433 149.059H365.093V153.719H360.433V149.059Z" fill="#FFF6ED"/>
<path d="M351.63 149.059H356.29V153.719H351.63V149.059Z" fill="#FFF6ED"/>
<path d="M342.697 149.059H347.358V153.719H342.697V149.059Z" fill="#FFF6ED"/>
<path d="M369.236 156.827H373.896V161.487H369.236V156.827Z" fill="#FFF6ED"/>
<path d="M360.433 156.827H365.093V161.487H360.433V156.827Z" fill="#FFF6ED"/>
<path d="M351.63 156.827H356.29V161.487H351.63V156.827Z" fill="#FFF6ED"/>
<path d="M369.235 63.6191H373.896V68.2795H369.235V63.6191Z" fill="#FFF6ED"/>
<path d="M360.433 63.6191H365.093V68.2795H360.433V63.6191Z" fill="#FFF6ED"/>
<path d="M351.63 63.6191H356.29V68.2795H351.63V63.6191Z" fill="#FFF6ED"/>
<path d="M369.236 71.3872H373.896V76.0476H369.236V71.3872Z" fill="#FFF6ED"/>
<path d="M360.433 71.3872H365.093V76.0476H360.433V71.3872Z" fill="#FFF6ED"/>
<path d="M351.63 71.3872H356.29V76.0476H351.63V71.3872Z" fill="#FFF6ED"/>
<path d="M342.697 71.3872H347.358V76.0476H342.697V71.3872Z" fill="#FFF6ED"/>
<path d="M369.236 79.1538H373.896V83.8142H369.236V79.1538Z" fill="#FFF6ED"/>
<path d="M360.433 79.1538H365.093V83.8142H360.433V79.1538Z" fill="#FFF6ED"/>
<path d="M351.63 79.1538H356.29V83.8142H351.63V79.1538Z" fill="#FFF6ED"/>
<path d="M375.521 133.023V52.7681H406.36V133.023H464.411V176.711H376.687V176.832H353.881V132.903H375.521V133.023ZM379.538 100.801H402.343V98.6283H379.538V100.801ZM379.538 96.4559H402.343V94.2836H379.538V96.4559ZM379.538 92.1113H402.343V89.939H379.538V92.1113ZM379.538 87.7666H402.343V85.5943H379.538V87.7666ZM379.538 83.422H402.343V81.2497H379.538V83.422ZM379.538 79.0773H402.343V76.905H379.538V79.0773ZM379.538 74.7327H402.343V72.5604H379.538V74.7327ZM379.538 70.388H402.343V68.2157H379.538V70.388ZM379.538 66.0434H402.343V63.8711H379.538V66.0434ZM379.538 61.6987H402.343V59.5264H379.538V61.6987ZM379.538 57.3541H402.343V55.1818H379.538V57.3541Z" fill="#F0DDD2"/>
<path d="M327.114 132.748V51.1913H330.868V42.9062H358.054V51.1913H361.679V153.849H388.346V107.375H427.183V168.348H446.083V59.088H484.402V142.975H488.933V93.0052H495.923L515.212 82.7783V93.0052H519.484V154.755H528.805V71.2568H538.255V42H539.55V71.2568H549V176.763H302V132.877H327.114V132.748ZM531.006 124.722H546.67V122.909H531.006V124.722ZM531.006 120.579H546.67V118.767H531.006V120.579ZM531.006 116.307H546.67V114.495H531.006V116.307ZM531.006 112.165H546.67V110.352H531.006V112.165ZM531.006 107.893H546.67V106.08H531.006V107.893ZM531.006 103.75H546.67V101.938H531.006V103.75ZM531.006 99.478H546.67V97.6656H531.006V99.478ZM531.006 95.3354H546.67V93.5231H531.006V95.3354ZM531.006 91.1929H546.67V89.3805H531.006V91.1929ZM531.006 86.9209H546.67V85.1085H531.006V86.9209ZM531.006 82.7783H546.67V80.9659H531.006V82.7783ZM531.006 78.5063H546.67V76.6939H531.006V78.5063ZM531.006 74.3637H546.67V72.5514H531.006V74.3637ZM476.117 99.3485H480.777V94.6882H476.117V99.3485ZM476.117 91.5812H480.777V86.9209H476.117V91.5812ZM476.117 83.8139H480.777V79.1536H476.117V83.8139ZM476.117 76.0466H480.777V71.3863H476.117V76.0466ZM476.117 68.2794H480.777V63.619H476.117V68.2794ZM467.314 99.3485H471.974V94.6882H467.314V99.3485ZM467.314 91.5812H471.974V86.9209H467.314V91.5812ZM467.314 83.8139H471.974V79.1536H467.314V83.8139ZM467.314 76.0466H471.974V71.3863H467.314V76.0466ZM467.314 68.2794H471.974V63.619H467.314V68.2794ZM458.511 99.3485H463.171V94.6882H458.511V99.3485ZM458.511 91.5812H463.171V86.9209H458.511V91.5812ZM458.511 83.8139H463.171V79.1536H458.511V83.8139ZM458.511 76.0466H463.171V71.3863H458.511V76.0466ZM458.511 68.2794H463.171V63.619H458.511V68.2794ZM449.579 99.3485H454.239V94.6882H449.579V99.3485ZM449.579 91.5812H454.239V86.9209H449.579V91.5812ZM449.579 83.8139H454.239V79.1536H449.579V83.8139ZM449.579 76.0466H454.239V71.3863H449.579V76.0466ZM322.324 171.067H327.114V166.277H322.324V171.067ZM322.324 161.357H327.114V156.568H322.324V161.357ZM322.324 151.648H327.114V146.858H322.324V151.648ZM322.324 142.069H327.114V137.279H322.324V142.069ZM313.263 171.067H318.052V166.277H313.263V171.067ZM313.263 161.357H318.052V156.568H313.263V161.357ZM313.263 151.648H318.052V146.858H313.263V151.648ZM313.263 142.069H318.052V137.279H313.263V142.069ZM304.33 171.067H309.12V166.277H304.33V171.067ZM304.33 161.357H309.12V156.568H304.33V161.357ZM304.33 151.648H309.12V146.858H304.33V151.648ZM304.33 142.069H309.12V137.279H304.33V142.069Z" fill="#F2D1BF"/>
<path d="M449.579 156.827H454.239V161.487H449.579V156.827Z" fill="#FFF6ED"/>
<path d="M476.117 164.594H480.777V169.255H476.117V164.594Z" fill="#FFF6ED"/>
<path d="M467.314 164.594H471.974V169.255H467.314V164.594Z" fill="#FFF6ED"/>
<path d="M458.511 164.594H463.171V169.255H458.511V164.594Z" fill="#FFF6ED"/>
<path d="M449.579 164.594H454.239V169.255H449.579V164.594Z" fill="#FFF6ED"/>
<path d="M449.579 79.1538H454.239V83.8142H449.579V79.1538Z" fill="#FFF6ED"/>
<path d="M476.117 86.9214H480.777V91.5818H476.117V86.9214Z" fill="#FFF6ED"/>
<path d="M467.314 86.9214H471.974V91.5818H467.314V86.9214Z" fill="#FFF6ED"/>
<path d="M458.511 86.9214H463.171V91.5818H458.511V86.9214Z" fill="#FFF6ED"/>
<path d="M449.579 86.9214H454.239V91.5818H449.579V86.9214Z" fill="#FFF6ED"/>
<path d="M476.117 94.6885H480.777V99.3489H476.117V94.6885Z" fill="#FFF6ED"/>
<path d="M467.314 94.6885H471.974V99.3489H467.314V94.6885Z" fill="#FFF6ED"/>
<path d="M458.511 94.6885H463.171V99.3489H458.511V94.6885Z" fill="#FFF6ED"/>
<path d="M449.579 94.6885H454.239V99.3489H449.579V94.6885Z" fill="#FFF6ED"/>
<path d="M476.117 102.456H480.777V107.116H476.117V102.456Z" fill="#FFF6ED"/>
<path d="M467.314 102.456H471.974V107.116H467.314V102.456Z" fill="#FFF6ED"/>
<path d="M458.511 102.456H463.171V107.116H458.511V102.456Z" fill="#FFF6ED"/>
<path d="M449.579 102.456H454.239V107.116H449.579V102.456Z" fill="#FFF6ED"/>
<path d="M476.117 110.223H480.777V114.884H476.117V110.223Z" fill="#FFF6ED"/>
<path d="M467.314 110.223H471.974V114.884H467.314V110.223Z" fill="#FFF6ED"/>
<path d="M458.511 110.223H463.171V114.884H458.511V110.223Z" fill="#FFF6ED"/>
<path d="M449.579 110.223H454.239V114.884H449.579V110.223Z" fill="#FFF6ED"/>
<path d="M476.117 117.99H480.777V122.651H476.117V117.99Z" fill="#FFF6ED"/>
<path d="M467.314 117.99H471.974V122.651H467.314V117.99Z" fill="#FFF6ED"/>
<path d="M458.511 117.99H463.171V122.651H458.511V117.99Z" fill="#FFF6ED"/>
<path d="M449.579 117.99H454.239V122.651H449.579V117.99Z" fill="#FFF6ED"/>
<path d="M476.117 125.757H480.777V130.418H476.117V125.757Z" fill="#FFF6ED"/>
<path d="M467.314 125.757H471.974V130.418H467.314V125.757Z" fill="#FFF6ED"/>
<path d="M458.511 125.757H463.171V130.418H458.511V125.757Z" fill="#FFF6ED"/>
<path d="M449.579 125.757H454.239V130.418H449.579V125.757Z" fill="#FFF6ED"/>
<path d="M476.117 133.525H480.777V138.186H476.117V133.525Z" fill="#FFF6ED"/>
<path d="M467.314 133.525H471.974V138.186H467.314V133.525Z" fill="#FFF6ED"/>
<path d="M458.511 133.525H463.171V138.186H458.511V133.525Z" fill="#FFF6ED"/>
<path d="M449.579 133.525H454.239V138.186H449.579V133.525Z" fill="#FFF6ED"/>
<path d="M476.117 141.292H480.777V145.952H476.117V141.292Z" fill="#FFF6ED"/>
<path d="M467.314 141.292H471.974V145.952H467.314V141.292Z" fill="#FFF6ED"/>
<path d="M458.511 141.292H463.171V145.952H458.511V141.292Z" fill="#FFF6ED"/>
<path d="M449.579 141.292H454.239V145.952H449.579V141.292Z" fill="#FFF6ED"/>
<path d="M476.117 149.059H480.777V153.719H476.117V149.059Z" fill="#FFF6ED"/>
<path d="M467.314 149.059H471.974V153.719H467.314V149.059Z" fill="#FFF6ED"/>
<path d="M458.511 149.059H463.171V153.719H458.511V149.059Z" fill="#FFF6ED"/>
<path d="M449.579 149.059H454.239V153.719H449.579V149.059Z" fill="#FFF6ED"/>
<path d="M476.117 156.827H480.777V161.487H476.117V156.827Z" fill="#FFF6ED"/>
<path d="M467.314 156.827H471.974V161.487H467.314V156.827Z" fill="#FFF6ED"/>
<path d="M458.511 156.827H463.171V161.487H458.511V156.827Z" fill="#FFF6ED"/>
<path d="M476.117 63.6191H480.777V68.2795H476.117V63.6191Z" fill="#FFF6ED"/>
<path d="M467.314 63.6191H471.974V68.2795H467.314V63.6191Z" fill="#FFF6ED"/>
<path d="M458.511 63.6191H463.171V68.2795H458.511V63.6191Z" fill="#FFF6ED"/>
<path d="M476.117 71.3872H480.777V76.0476H476.117V71.3872Z" fill="#FFF6ED"/>
<path d="M467.314 71.3872H471.974V76.0476H467.314V71.3872Z" fill="#FFF6ED"/>
<path d="M458.511 71.3872H463.171V76.0476H458.511V71.3872Z" fill="#FFF6ED"/>
<path d="M449.579 71.3872H454.239V76.0476H449.579V71.3872Z" fill="#FFF6ED"/>
<path d="M476.117 79.1538H480.777V83.8142H476.117V79.1538Z" fill="#FFF6ED"/>
<path d="M467.314 79.1538H471.974V83.8142H467.314V79.1538Z" fill="#FFF6ED"/>
<path d="M458.511 79.1538H463.171V83.8142H458.511V79.1538Z" fill="#FFF6ED"/>
<path d="M904.521 133.023V52.7681H935.36V133.023H993.411V176.711H905.687V176.832H882.881V132.903H904.521V133.023ZM908.538 100.801H931.343V98.6283H908.538V100.801ZM908.538 96.4559H931.343V94.2836H908.538V96.4559ZM908.538 92.1113H931.343V89.939H908.538V92.1113ZM908.538 87.7666H931.343V85.5943H908.538V87.7666ZM908.538 83.422H931.343V81.2497H908.538V83.422ZM908.538 79.0773H931.343V76.905H908.538V79.0773ZM908.538 74.7327H931.343V72.5604H908.538V74.7327ZM908.538 70.388H931.343V68.2157H908.538V70.388ZM908.538 66.0434H931.343V63.8711H908.538V66.0434ZM908.538 61.6987H931.343V59.5264H908.538V61.6987ZM908.538 57.3541H931.343V55.1818H908.538V57.3541Z" fill="#F0DDD2"/>
<path d="M856.114 132.748V51.1913H859.868V42.9062H887.054V51.1913H890.679V153.849H917.346V107.375H956.183V168.348H975.083V59.088H1013.4V142.975H1017.93V93.0052H1024.92L1044.21 82.7783V93.0052H1048.48V154.755H1057.81V71.2568H1067.26V42H1068.55V71.2568H1078V176.763H831V132.877H856.114V132.748ZM1060.01 124.722H1075.67V122.909H1060.01V124.722ZM1060.01 120.579H1075.67V118.767H1060.01V120.579ZM1060.01 116.307H1075.67V114.495H1060.01V116.307ZM1060.01 112.165H1075.67V110.352H1060.01V112.165ZM1060.01 107.893H1075.67V106.08H1060.01V107.893ZM1060.01 103.75H1075.67V101.938H1060.01V103.75ZM1060.01 99.478H1075.67V97.6656H1060.01V99.478ZM1060.01 95.3354H1075.67V93.5231H1060.01V95.3354ZM1060.01 91.1929H1075.67V89.3805H1060.01V91.1929ZM1060.01 86.9209H1075.67V85.1085H1060.01V86.9209ZM1060.01 82.7783H1075.67V80.9659H1060.01V82.7783ZM1060.01 78.5063H1075.67V76.6939H1060.01V78.5063ZM1060.01 74.3637H1075.67V72.5514H1060.01V74.3637ZM1005.12 99.3485H1009.78V94.6882H1005.12V99.3485ZM1005.12 91.5812H1009.78V86.9209H1005.12V91.5812ZM1005.12 83.8139H1009.78V79.1536H1005.12V83.8139ZM1005.12 76.0466H1009.78V71.3863H1005.12V76.0466ZM1005.12 68.2794H1009.78V63.619H1005.12V68.2794ZM996.314 99.3485H1000.97V94.6882H996.314V99.3485ZM996.314 91.5812H1000.97V86.9209H996.314V91.5812ZM996.314 83.8139H1000.97V79.1536H996.314V83.8139ZM996.314 76.0466H1000.97V71.3863H996.314V76.0466ZM996.314 68.2794H1000.97V63.619H996.314V68.2794ZM987.511 99.3485H992.171V94.6882H987.511V99.3485ZM987.511 91.5812H992.171V86.9209H987.511V91.5812ZM987.511 83.8139H992.171V79.1536H987.511V83.8139ZM987.511 76.0466H992.171V71.3863H987.511V76.0466ZM987.511 68.2794H992.171V63.619H987.511V68.2794ZM978.579 99.3485H983.239V94.6882H978.579V99.3485ZM978.579 91.5812H983.239V86.9209H978.579V91.5812ZM978.579 83.8139H983.239V79.1536H978.579V83.8139ZM978.579 76.0466H983.239V71.3863H978.579V76.0466ZM851.324 171.067H856.114V166.277H851.324V171.067ZM851.324 161.357H856.114V156.568H851.324V161.357ZM851.324 151.648H856.114V146.858H851.324V151.648ZM851.324 142.069H856.114V137.279H851.324V142.069ZM842.263 171.067H847.052V166.277H842.263V171.067ZM842.263 161.357H847.052V156.568H842.263V161.357ZM842.263 151.648H847.052V146.858H842.263V151.648ZM842.263 142.069H847.052V137.279H842.263V142.069ZM833.33 171.067H838.12V166.277H833.33V171.067ZM833.33 161.357H838.12V156.568H833.33V161.357ZM833.33 151.648H838.12V146.858H833.33V151.648ZM833.33 142.069H838.12V137.279H833.33V142.069Z" fill="#F2D1BF"/>
<path d="M978.579 156.827H983.239V161.487H978.579V156.827Z" fill="#FFF6ED"/>
<path d="M1005.12 164.594H1009.78V169.255H1005.12V164.594Z" fill="#FFF6ED"/>
<path d="M996.314 164.594H1000.97V169.255H996.314V164.594Z" fill="#FFF6ED"/>
<path d="M987.511 164.594H992.171V169.255H987.511V164.594Z" fill="#FFF6ED"/>
<path d="M978.579 164.594H983.239V169.255H978.579V164.594Z" fill="#FFF6ED"/>
<path d="M978.579 79.1538H983.239V83.8142H978.579V79.1538Z" fill="#FFF6ED"/>
<path d="M1005.12 86.9214H1009.78V91.5818H1005.12V86.9214Z" fill="#FFF6ED"/>
<path d="M996.314 86.9214H1000.97V91.5818H996.314V86.9214Z" fill="#FFF6ED"/>
<path d="M987.511 86.9214H992.171V91.5818H987.511V86.9214Z" fill="#FFF6ED"/>
<path d="M978.579 86.9214H983.239V91.5818H978.579V86.9214Z" fill="#FFF6ED"/>
<path d="M1005.12 94.6885H1009.78V99.3489H1005.12V94.6885Z" fill="#FFF6ED"/>
<path d="M996.314 94.6885H1000.97V99.3489H996.314V94.6885Z" fill="#FFF6ED"/>
<path d="M987.511 94.6885H992.171V99.3489H987.511V94.6885Z" fill="#FFF6ED"/>
<path d="M978.579 94.6885H983.239V99.3489H978.579V94.6885Z" fill="#FFF6ED"/>
<path d="M1005.12 102.456H1009.78V107.116H1005.12V102.456Z" fill="#FFF6ED"/>
<path d="M996.314 102.456H1000.97V107.116H996.314V102.456Z" fill="#FFF6ED"/>
<path d="M987.511 102.456H992.171V107.116H987.511V102.456Z" fill="#FFF6ED"/>
<path d="M978.579 102.456H983.239V107.116H978.579V102.456Z" fill="#FFF6ED"/>
<path d="M1005.12 110.223H1009.78V114.884H1005.12V110.223Z" fill="#FFF6ED"/>
<path d="M996.314 110.223H1000.97V114.884H996.314V110.223Z" fill="#FFF6ED"/>
<path d="M987.511 110.223H992.171V114.884H987.511V110.223Z" fill="#FFF6ED"/>
<path d="M978.579 110.223H983.239V114.884H978.579V110.223Z" fill="#FFF6ED"/>
<path d="M1005.12 117.99H1009.78V122.651H1005.12V117.99Z" fill="#FFF6ED"/>
<path d="M996.314 117.99H1000.97V122.651H996.314V117.99Z" fill="#FFF6ED"/>
<path d="M987.511 117.99H992.171V122.651H987.511V117.99Z" fill="#FFF6ED"/>
<path d="M978.579 117.99H983.239V122.651H978.579V117.99Z" fill="#FFF6ED"/>
<path d="M1005.12 125.757H1009.78V130.418H1005.12V125.757Z" fill="#FFF6ED"/>
<path d="M996.314 125.757H1000.97V130.418H996.314V125.757Z" fill="#FFF6ED"/>
<path d="M987.511 125.757H992.171V130.418H987.511V125.757Z" fill="#FFF6ED"/>
<path d="M978.579 125.757H983.239V130.418H978.579V125.757Z" fill="#FFF6ED"/>
<path d="M1005.12 133.525H1009.78V138.186H1005.12V133.525Z" fill="#FFF6ED"/>
<path d="M996.314 133.525H1000.97V138.186H996.314V133.525Z" fill="#FFF6ED"/>
<path d="M987.511 133.525H992.171V138.186H987.511V133.525Z" fill="#FFF6ED"/>
<path d="M978.579 133.525H983.239V138.186H978.579V133.525Z" fill="#FFF6ED"/>
<path d="M1005.12 141.292H1009.78V145.952H1005.12V141.292Z" fill="#FFF6ED"/>
<path d="M996.314 141.292H1000.97V145.952H996.314V141.292Z" fill="#FFF6ED"/>
<path d="M987.511 141.292H992.171V145.952H987.511V141.292Z" fill="#FFF6ED"/>
<path d="M978.579 141.292H983.239V145.952H978.579V141.292Z" fill="#FFF6ED"/>
<path d="M1005.12 149.059H1009.78V153.719H1005.12V149.059Z" fill="#FFF6ED"/>
<path d="M996.314 149.059H1000.97V153.719H996.314V149.059Z" fill="#FFF6ED"/>
<path d="M987.511 149.059H992.171V153.719H987.511V149.059Z" fill="#FFF6ED"/>
<path d="M978.579 149.059H983.239V153.719H978.579V149.059Z" fill="#FFF6ED"/>
<path d="M1005.12 156.827H1009.78V161.487H1005.12V156.827Z" fill="#FFF6ED"/>
<path d="M996.314 156.827H1000.97V161.487H996.314V156.827Z" fill="#FFF6ED"/>
<path d="M987.511 156.827H992.171V161.487H987.511V156.827Z" fill="#FFF6ED"/>
<path d="M1005.12 63.6191H1009.78V68.2795H1005.12V63.6191Z" fill="#FFF6ED"/>
<path d="M996.314 63.6191H1000.97V68.2795H996.314V63.6191Z" fill="#FFF6ED"/>
<path d="M987.511 63.6191H992.171V68.2795H987.511V63.6191Z" fill="#FFF6ED"/>
<path d="M1005.12 71.3872H1009.78V76.0476H1005.12V71.3872Z" fill="#FFF6ED"/>
<path d="M996.314 71.3872H1000.97V76.0476H996.314V71.3872Z" fill="#FFF6ED"/>
<path d="M987.511 71.3872H992.171V76.0476H987.511V71.3872Z" fill="#FFF6ED"/>
<path d="M978.579 71.3872H983.239V76.0476H978.579V71.3872Z" fill="#FFF6ED"/>
<path d="M1005.12 79.1538H1009.78V83.8142H1005.12V79.1538Z" fill="#FFF6ED"/>
<path d="M996.314 79.1538H1000.97V83.8142H996.314V79.1538Z" fill="#FFF6ED"/>
<path d="M987.511 79.1538H992.171V83.8142H987.511V79.1538Z" fill="#FFF6ED"/>
<path d="M809.361 133.023V52.7681H778.521V133.023H720.47V176.711H808.194V176.832H831V132.903H809.361V133.023ZM805.344 100.801H782.538V98.6283H805.344V100.801ZM805.344 96.4559H782.538V94.2836H805.344V96.4559ZM805.344 92.1113H782.538V89.939H805.344V92.1113ZM805.344 87.7666H782.538V85.5943H805.344V87.7666ZM805.344 83.422H782.538V81.2497H805.344V83.422ZM805.344 79.0773H782.538V76.905H805.344V79.0773ZM805.344 74.7327H782.538V72.5604H805.344V74.7327ZM805.344 70.388H782.538V68.2157H805.344V70.388ZM805.344 66.0434H782.538V63.8711H805.344V66.0434ZM805.344 61.6987H782.538V59.5264H805.344V61.6987ZM805.344 57.3541H782.538V55.1818H805.344V57.3541Z" fill="#F0DDD2"/>
<path d="M735.303 156.827H730.642V161.487H735.303V156.827Z" fill="#FFF6ED"/>
<path d="M708.764 164.594H704.104V169.255H708.764V164.594Z" fill="#FFF6ED"/>
<path d="M717.567 164.594H712.907V169.255H717.567V164.594Z" fill="#FFF6ED"/>
<path d="M726.371 164.594H721.71V169.255H726.371V164.594Z" fill="#FFF6ED"/>
<path d="M735.303 164.594H730.642V169.255H735.303V164.594Z" fill="#FFF6ED"/>
<path d="M735.303 79.1538H730.642V83.8142H735.303V79.1538Z" fill="#FFF6ED"/>
<path d="M708.764 86.9214H704.104V91.5818H708.764V86.9214Z" fill="#FFF6ED"/>
<path d="M717.567 86.9214H712.907V91.5818H717.567V86.9214Z" fill="#FFF6ED"/>
<path d="M726.371 86.9214H721.71V91.5818H726.371V86.9214Z" fill="#FFF6ED"/>
<path d="M735.303 86.9214H730.642V91.5818H735.303V86.9214Z" fill="#FFF6ED"/>
<path d="M708.764 94.6885H704.104V99.3489H708.764V94.6885Z" fill="#FFF6ED"/>
<path d="M717.567 94.6885H712.907V99.3489H717.567V94.6885Z" fill="#FFF6ED"/>
<path d="M726.371 94.6885H721.71V99.3489H726.371V94.6885Z" fill="#FFF6ED"/>
<path d="M735.303 94.6885H730.642V99.3489H735.303V94.6885Z" fill="#FFF6ED"/>
<path d="M708.764 102.456H704.104V107.116H708.764V102.456Z" fill="#FFF6ED"/>
<path d="M717.567 102.456H712.907V107.116H717.567V102.456Z" fill="#FFF6ED"/>
<path d="M726.371 102.456H721.71V107.116H726.371V102.456Z" fill="#FFF6ED"/>
<path d="M735.303 102.456H730.642V107.116H735.303V102.456Z" fill="#FFF6ED"/>
<path d="M708.764 110.223H704.104V114.884H708.764V110.223Z" fill="#FFF6ED"/>
<path d="M717.567 110.223H712.907V114.884H717.567V110.223Z" fill="#FFF6ED"/>
<path d="M726.371 110.223H721.71V114.884H726.371V110.223Z" fill="#FFF6ED"/>
<path d="M735.303 110.223H730.642V114.884H735.303V110.223Z" fill="#FFF6ED"/>
<path d="M708.764 117.99H704.104V122.651H708.764V117.99Z" fill="#FFF6ED"/>
<path d="M717.567 117.99H712.907V122.651H717.567V117.99Z" fill="#FFF6ED"/>
<path d="M726.371 117.99H721.71V122.651H726.371V117.99Z" fill="#FFF6ED"/>
<path d="M735.303 117.99H730.642V122.651H735.303V117.99Z" fill="#FFF6ED"/>
<path d="M708.764 125.757H704.104V130.418H708.764V125.757Z" fill="#FFF6ED"/>
<path d="M717.567 125.757H712.907V130.418H717.567V125.757Z" fill="#FFF6ED"/>
<path d="M726.371 125.757H721.71V130.418H726.371V125.757Z" fill="#FFF6ED"/>
<path d="M735.303 125.757H730.642V130.418H735.303V125.757Z" fill="#FFF6ED"/>
<path d="M708.764 133.525H704.104V138.186H708.764V133.525Z" fill="#FFF6ED"/>
<path d="M717.567 133.525H712.907V138.186H717.567V133.525Z" fill="#FFF6ED"/>
<path d="M726.371 133.525H721.71V138.186H726.371V133.525Z" fill="#FFF6ED"/>
<path d="M735.303 133.525H730.642V138.186H735.303V133.525Z" fill="#FFF6ED"/>
<path d="M708.764 141.292H704.104V145.952H708.764V141.292Z" fill="#FFF6ED"/>
<path d="M717.567 141.292H712.907V145.952H717.567V141.292Z" fill="#FFF6ED"/>
<path d="M726.371 141.292H721.71V145.952H726.371V141.292Z" fill="#FFF6ED"/>
<path d="M735.303 141.292H730.642V145.952H735.303V141.292Z" fill="#FFF6ED"/>
<path d="M708.764 149.059H704.104V153.719H708.764V149.059Z" fill="#FFF6ED"/>
<path d="M717.567 149.059H712.907V153.719H717.567V149.059Z" fill="#FFF6ED"/>
<path d="M726.371 149.059H721.71V153.719H726.371V149.059Z" fill="#FFF6ED"/>
<path d="M735.303 149.059H730.642V153.719H735.303V149.059Z" fill="#FFF6ED"/>
<path d="M708.764 156.827H704.104V161.487H708.764V156.827Z" fill="#FFF6ED"/>
<path d="M717.567 156.827H712.907V161.487H717.567V156.827Z" fill="#FFF6ED"/>
<path d="M726.371 156.827H721.71V161.487H726.371V156.827Z" fill="#FFF6ED"/>
<path d="M708.765 63.6191H704.104V68.2795H708.765V63.6191Z" fill="#FFF6ED"/>
<path d="M717.567 63.6191H712.907V68.2795H717.567V63.6191Z" fill="#FFF6ED"/>
<path d="M726.371 63.6191H721.71V68.2795H726.371V63.6191Z" fill="#FFF6ED"/>
<path d="M708.764 71.3872H704.104V76.0476H708.764V71.3872Z" fill="#FFF6ED"/>
<path d="M717.567 71.3872H712.907V76.0476H717.567V71.3872Z" fill="#FFF6ED"/>
<path d="M726.371 71.3872H721.71V76.0476H726.371V71.3872Z" fill="#FFF6ED"/>
<path d="M735.303 71.3872H730.642V76.0476H735.303V71.3872Z" fill="#FFF6ED"/>
<path d="M708.764 79.1538H704.104V83.8142H708.764V79.1538Z" fill="#FFF6ED"/>
<path d="M717.567 79.1538H712.907V83.8142H717.567V79.1538Z" fill="#FFF6ED"/>
<path d="M726.371 79.1538H721.71V83.8142H726.371V79.1538Z" fill="#FFF6ED"/>
<path d="M702.479 133.023V52.7681H671.64V133.023H613.589V176.711H701.313V176.832H724.119V132.903H702.479V133.023ZM698.462 100.801H675.657V98.6283H698.462V100.801ZM698.462 96.4559H675.657V94.2836H698.462V96.4559ZM698.462 92.1113H675.657V89.939H698.462V92.1113ZM698.462 87.7666H675.657V85.5943H698.462V87.7666ZM698.462 83.422H675.657V81.2497H698.462V83.422ZM698.462 79.0773H675.657V76.905H698.462V79.0773ZM698.462 74.7327H675.657V72.5604H698.462V74.7327ZM698.462 70.388H675.657V68.2157H698.462V70.388ZM698.462 66.0434H675.657V63.8711H698.462V66.0434ZM698.462 61.6987H675.657V59.5264H698.462V61.6987ZM698.462 57.3541H675.657V55.1818H698.462V57.3541Z" fill="#F0DDD2"/>
<path d="M750.886 132.748V51.1913H747.132V42.9062H719.946V51.1913H716.321V153.849H689.654V107.375H650.817V168.348H631.917V59.088H593.598V142.975H589.067V93.0052H582.077L562.788 82.7783V93.0052H558.516V154.755H549.195V71.2568H539.745V42H538.45V71.2568H529V176.763H776V132.877H750.886V132.748ZM546.994 124.722H531.33V122.909H546.994V124.722ZM546.994 120.579H531.33V118.767H546.994V120.579ZM546.994 116.307H531.33V114.495H546.994V116.307ZM546.994 112.165H531.33V110.352H546.994V112.165ZM546.994 107.893H531.33V106.08H546.994V107.893ZM546.994 103.75H531.33V101.938H546.994V103.75ZM546.994 99.478H531.33V97.6656H546.994V99.478ZM546.994 95.3354H531.33V93.5231H546.994V95.3354ZM546.994 91.1929H531.33V89.3805H546.994V91.1929ZM546.994 86.9209H531.33V85.1085H546.994V86.9209ZM546.994 82.7783H531.33V80.9659H546.994V82.7783ZM546.994 78.5063H531.33V76.6939H546.994V78.5063ZM546.994 74.3637H531.33V72.5514H546.994V74.3637ZM601.883 99.3485H597.223V94.6882H601.883V99.3485ZM601.883 91.5812H597.223V86.9209H601.883V91.5812ZM601.883 83.8139H597.223V79.1536H601.883V83.8139ZM601.883 76.0466H597.223V71.3863H601.883V76.0466ZM601.883 68.2794H597.223V63.619H601.883V68.2794ZM610.686 99.3485H606.026V94.6882H610.686V99.3485ZM610.686 91.5812H606.026V86.9209H610.686V91.5812ZM610.686 83.8139H606.026V79.1536H610.686V83.8139ZM610.686 76.0466H606.026V71.3863H610.686V76.0466ZM610.686 68.2794H606.026V63.619H610.686V68.2794ZM619.489 99.3485H614.829V94.6882H619.489V99.3485ZM619.489 91.5812H614.829V86.9209H619.489V91.5812ZM619.489 83.8139H614.829V79.1536H619.489V83.8139ZM619.489 76.0466H614.829V71.3863H619.489V76.0466ZM619.489 68.2794H614.829V63.619H619.489V68.2794ZM628.421 99.3485H623.761V94.6882H628.421V99.3485ZM628.421 91.5812H623.761V86.9209H628.421V91.5812ZM628.421 83.8139H623.761V79.1536H628.421V83.8139ZM628.421 76.0466H623.761V71.3863H628.421V76.0466ZM755.676 171.067H750.886V166.277H755.676V171.067ZM755.676 161.357H750.886V156.568H755.676V161.357ZM755.676 151.648H750.886V146.858H755.676V151.648ZM755.676 142.069H750.886V137.279H755.676V142.069ZM764.737 171.067H759.948V166.277H764.737V171.067ZM764.737 161.357H759.948V156.568H764.737V161.357ZM764.737 151.648H759.948V146.858H764.737V151.648ZM764.737 142.069H759.948V137.279H764.737V142.069ZM773.67 171.067H768.88V166.277H773.67V171.067ZM773.67 161.357H768.88V156.568H773.67V161.357ZM773.67 151.648H768.88V146.858H773.67V151.648ZM773.67 142.069H768.88V137.279H773.67V142.069Z" fill="#F2D1BF"/>
<path d="M628.421 156.827H623.761V161.487H628.421V156.827Z" fill="#FFF6ED"/>
<path d="M601.883 164.594H597.223V169.255H601.883V164.594Z" fill="#FFF6ED"/>
<path d="M610.686 164.594H606.026V169.255H610.686V164.594Z" fill="#FFF6ED"/>
<path d="M619.489 164.594H614.829V169.255H619.489V164.594Z" fill="#FFF6ED"/>
<path d="M628.421 164.594H623.761V169.255H628.421V164.594Z" fill="#FFF6ED"/>
<path d="M628.421 79.1538H623.761V83.8142H628.421V79.1538Z" fill="#FFF6ED"/>
<path d="M601.883 86.9214H597.223V91.5818H601.883V86.9214Z" fill="#FFF6ED"/>
<path d="M610.686 86.9214H606.026V91.5818H610.686V86.9214Z" fill="#FFF6ED"/>
<path d="M619.489 86.9214H614.829V91.5818H619.489V86.9214Z" fill="#FFF6ED"/>
<path d="M628.421 86.9214H623.761V91.5818H628.421V86.9214Z" fill="#FFF6ED"/>
<path d="M601.883 94.6885H597.223V99.3489H601.883V94.6885Z" fill="#FFF6ED"/>
<path d="M610.686 94.6885H606.026V99.3489H610.686V94.6885Z" fill="#FFF6ED"/>
<path d="M619.489 94.6885H614.829V99.3489H619.489V94.6885Z" fill="#FFF6ED"/>
<path d="M628.421 94.6885H623.761V99.3489H628.421V94.6885Z" fill="#FFF6ED"/>
<path d="M601.883 102.456H597.223V107.116H601.883V102.456Z" fill="#FFF6ED"/>
<path d="M610.686 102.456H606.026V107.116H610.686V102.456Z" fill="#FFF6ED"/>
<path d="M619.489 102.456H614.829V107.116H619.489V102.456Z" fill="#FFF6ED"/>
<path d="M628.421 102.456H623.761V107.116H628.421V102.456Z" fill="#FFF6ED"/>
<path d="M601.883 110.223H597.223V114.884H601.883V110.223Z" fill="#FFF6ED"/>
<path d="M610.686 110.223H606.026V114.884H610.686V110.223Z" fill="#FFF6ED"/>
<path d="M619.489 110.223H614.829V114.884H619.489V110.223Z" fill="#FFF6ED"/>
<path d="M628.421 110.223H623.761V114.884H628.421V110.223Z" fill="#FFF6ED"/>
<path d="M601.883 117.99H597.223V122.651H601.883V117.99Z" fill="#FFF6ED"/>
<path d="M610.686 117.99H606.026V122.651H610.686V117.99Z" fill="#FFF6ED"/>
<path d="M619.489 117.99H614.829V122.651H619.489V117.99Z" fill="#FFF6ED"/>
<path d="M628.421 117.99H623.761V122.651H628.421V117.99Z" fill="#FFF6ED"/>
<path d="M601.883 125.757H597.223V130.418H601.883V125.757Z" fill="#FFF6ED"/>
<path d="M610.686 125.757H606.026V130.418H610.686V125.757Z" fill="#FFF6ED"/>
<path d="M619.489 125.757H614.829V130.418H619.489V125.757Z" fill="#FFF6ED"/>
<path d="M628.421 125.757H623.761V130.418H628.421V125.757Z" fill="#FFF6ED"/>
<path d="M601.883 133.525H597.223V138.186H601.883V133.525Z" fill="#FFF6ED"/>
<path d="M610.686 133.525H606.026V138.186H610.686V133.525Z" fill="#FFF6ED"/>
<path d="M619.489 133.525H614.829V138.186H619.489V133.525Z" fill="#FFF6ED"/>
<path d="M628.421 133.525H623.761V138.186H628.421V133.525Z" fill="#FFF6ED"/>
<path d="M601.883 141.292H597.223V145.952H601.883V141.292Z" fill="#FFF6ED"/>
<path d="M610.686 141.292H606.026V145.952H610.686V141.292Z" fill="#FFF6ED"/>
<path d="M619.489 141.292H614.829V145.952H619.489V141.292Z" fill="#FFF6ED"/>
<path d="M628.421 141.292H623.761V145.952H628.421V141.292Z" fill="#FFF6ED"/>
<path d="M601.883 149.059H597.223V153.719H601.883V149.059Z" fill="#FFF6ED"/>
<path d="M610.686 149.059H606.026V153.719H610.686V149.059Z" fill="#FFF6ED"/>
<path d="M619.489 149.059H614.829V153.719H619.489V149.059Z" fill="#FFF6ED"/>
<path d="M628.421 149.059H623.761V153.719H628.421V149.059Z" fill="#FFF6ED"/>
<path d="M601.883 156.827H597.223V161.487H601.883V156.827Z" fill="#FFF6ED"/>
<path d="M610.686 156.827H606.026V161.487H610.686V156.827Z" fill="#FFF6ED"/>
<path d="M619.489 156.827H614.829V161.487H619.489V156.827Z" fill="#FFF6ED"/>
<path d="M601.883 63.6191H597.223V68.2795H601.883V63.6191Z" fill="#FFF6ED"/>
<path d="M610.686 63.6191H606.026V68.2795H610.686V63.6191Z" fill="#FFF6ED"/>
<path d="M619.489 63.6191H614.829V68.2795H619.489V63.6191Z" fill="#FFF6ED"/>
<path d="M601.883 71.3872H597.223V76.0476H601.883V71.3872Z" fill="#FFF6ED"/>
<path d="M610.686 71.3872H606.026V76.0476H610.686V71.3872Z" fill="#FFF6ED"/>
<path d="M619.489 71.3872H614.829V76.0476H619.489V71.3872Z" fill="#FFF6ED"/>
<path d="M628.421 71.3872H623.761V76.0476H628.421V71.3872Z" fill="#FFF6ED"/>
<path d="M601.883 79.1538H597.223V83.8142H601.883V79.1538Z" fill="#FFF6ED"/>
<path d="M610.686 79.1538H606.026V83.8142H610.686V79.1538Z" fill="#FFF6ED"/>
<path d="M619.489 79.1538H614.829V83.8142H619.489V79.1538Z" fill="#FFF6ED"/>
<path d="M1099.64 133.255V53H1130.48V133.255H1188.53V176.943H1100.81V177.064H1078V133.135H1099.64V133.255ZM1103.66 101.033H1126.46V98.8602H1103.66V101.033ZM1103.66 96.6879H1126.46V94.5156H1103.66V96.6879ZM1103.66 92.3432H1126.46V90.1709H1103.66V92.3432ZM1103.66 87.9986H1126.46V85.8262H1103.66V87.9986ZM1103.66 83.6539H1126.46V81.4816H1103.66V83.6539ZM1103.66 79.3093H1126.46V77.137H1103.66V79.3093ZM1103.66 74.9646H1126.46V72.7923H1103.66V74.9646ZM1103.66 70.62H1126.46V68.4477H1103.66V70.62ZM1103.66 66.2753H1126.46V64.103H1103.66V66.2753ZM1103.66 61.9307H1126.46V59.7584H1103.66V61.9307ZM1103.66 57.586H1126.46V55.4137H1103.66V57.586Z" fill="#F0DDD2"/>
<path d="M1173.7 157.059H1178.36V161.719H1173.7V157.059Z" fill="#FFF6ED"/>
<path d="M1200.24 164.826H1204.9V169.487H1200.24V164.826Z" fill="#FFF6ED"/>
<path d="M1191.43 164.826H1196.09V169.487H1191.43V164.826Z" fill="#FFF6ED"/>
<path d="M1182.63 164.826H1187.29V169.487H1182.63V164.826Z" fill="#FFF6ED"/>
<path d="M1173.7 164.826H1178.36V169.487H1173.7V164.826Z" fill="#FFF6ED"/>
<path d="M1173.7 79.3857H1178.36V84.0461H1173.7V79.3857Z" fill="#FFF6ED"/>
<path d="M1200.24 87.1533H1204.9V91.8137H1200.24V87.1533Z" fill="#FFF6ED"/>
<path d="M1191.43 87.1533H1196.09V91.8137H1191.43V87.1533Z" fill="#FFF6ED"/>
<path d="M1182.63 87.1533H1187.29V91.8137H1182.63V87.1533Z" fill="#FFF6ED"/>
<path d="M1173.7 87.1533H1178.36V91.8137H1173.7V87.1533Z" fill="#FFF6ED"/>
<path d="M1200.24 94.9204H1204.9V99.5808H1200.24V94.9204Z" fill="#FFF6ED"/>
<path d="M1191.43 94.9204H1196.09V99.5808H1191.43V94.9204Z" fill="#FFF6ED"/>
<path d="M1182.63 94.9204H1187.29V99.5808H1182.63V94.9204Z" fill="#FFF6ED"/>
<path d="M1173.7 94.9204H1178.36V99.5808H1173.7V94.9204Z" fill="#FFF6ED"/>
<path d="M1200.24 102.688H1204.9V107.348H1200.24V102.688Z" fill="#FFF6ED"/>
<path d="M1191.43 102.688H1196.09V107.348H1191.43V102.688Z" fill="#FFF6ED"/>
<path d="M1182.63 102.688H1187.29V107.348H1182.63V102.688Z" fill="#FFF6ED"/>
<path d="M1173.7 102.688H1178.36V107.348H1173.7V102.688Z" fill="#FFF6ED"/>
<path d="M1200.24 110.455H1204.9V115.115H1200.24V110.455Z" fill="#FFF6ED"/>
<path d="M1191.43 110.455H1196.09V115.115H1191.43V110.455Z" fill="#FFF6ED"/>
<path d="M1182.63 110.455H1187.29V115.115H1182.63V110.455Z" fill="#FFF6ED"/>
<path d="M1173.7 110.455H1178.36V115.115H1173.7V110.455Z" fill="#FFF6ED"/>
<path d="M1200.24 118.222H1204.9V122.883H1200.24V118.222Z" fill="#FFF6ED"/>
<path d="M1191.43 118.222H1196.09V122.883H1191.43V118.222Z" fill="#FFF6ED"/>
<path d="M1182.63 118.222H1187.29V122.883H1182.63V118.222Z" fill="#FFF6ED"/>
<path d="M1173.7 118.222H1178.36V122.883H1173.7V118.222Z" fill="#FFF6ED"/>
<path d="M1200.24 125.989H1204.9V130.65H1200.24V125.989Z" fill="#FFF6ED"/>
<path d="M1191.43 125.989H1196.09V130.65H1191.43V125.989Z" fill="#FFF6ED"/>
<path d="M1182.63 125.989H1187.29V130.65H1182.63V125.989Z" fill="#FFF6ED"/>
<path d="M1173.7 125.989H1178.36V130.65H1173.7V125.989Z" fill="#FFF6ED"/>
<path d="M1200.24 133.757H1204.9V138.418H1200.24V133.757Z" fill="#FFF6ED"/>
<path d="M1191.43 133.757H1196.09V138.418H1191.43V133.757Z" fill="#FFF6ED"/>
<path d="M1182.63 133.757H1187.29V138.418H1182.63V133.757Z" fill="#FFF6ED"/>
<path d="M1173.7 133.757H1178.36V138.418H1173.7V133.757Z" fill="#FFF6ED"/>
<path d="M1200.24 141.524H1204.9V146.184H1200.24V141.524Z" fill="#FFF6ED"/>
<path d="M1191.43 141.524H1196.09V146.184H1191.43V141.524Z" fill="#FFF6ED"/>
<path d="M1182.63 141.524H1187.29V146.184H1182.63V141.524Z" fill="#FFF6ED"/>
<path d="M1173.7 141.524H1178.36V146.184H1173.7V141.524Z" fill="#FFF6ED"/>
<path d="M1200.24 149.291H1204.9V153.951H1200.24V149.291Z" fill="#FFF6ED"/>
<path d="M1191.43 149.291H1196.09V153.951H1191.43V149.291Z" fill="#FFF6ED"/>
<path d="M1182.63 149.291H1187.29V153.951H1182.63V149.291Z" fill="#FFF6ED"/>
<path d="M1173.7 149.291H1178.36V153.951H1173.7V149.291Z" fill="#FFF6ED"/>
<path d="M1200.24 157.059H1204.9V161.719H1200.24V157.059Z" fill="#FFF6ED"/>
<path d="M1191.43 157.059H1196.09V161.719H1191.43V157.059Z" fill="#FFF6ED"/>
<path d="M1182.63 157.059H1187.29V161.719H1182.63V157.059Z" fill="#FFF6ED"/>
<path d="M1200.24 63.8511H1204.9V68.5115H1200.24V63.8511Z" fill="#FFF6ED"/>
<path d="M1191.43 63.8511H1196.09V68.5115H1191.43V63.8511Z" fill="#FFF6ED"/>
<path d="M1182.63 63.8511H1187.29V68.5115H1182.63V63.8511Z" fill="#FFF6ED"/>
<path d="M1200.24 71.6191H1204.9V76.2795H1200.24V71.6191Z" fill="#FFF6ED"/>
<path d="M1191.43 71.6191H1196.09V76.2795H1191.43V71.6191Z" fill="#FFF6ED"/>
<path d="M1182.63 71.6191H1187.29V76.2795H1182.63V71.6191Z" fill="#FFF6ED"/>
<path d="M1173.7 71.6191H1178.36V76.2795H1173.7V71.6191Z" fill="#FFF6ED"/>
<path d="M1200.24 79.3857H1204.9V84.0461H1200.24V79.3857Z" fill="#FFF6ED"/>
<path d="M1191.43 79.3857H1196.09V84.0461H1191.43V79.3857Z" fill="#FFF6ED"/>
<path d="M1182.63 79.3857H1187.29V84.0461H1182.63V79.3857Z" fill="#FFF6ED"/>
<path d="M1350.7 133.023V52.7681H1313.25V133.023H1242.74V176.711H1349.29V176.832H1376.99V132.903H1350.7V133.023ZM1345.82 100.801H1318.13V98.6283H1345.82V100.801ZM1345.82 96.4559H1318.13V94.2836H1345.82V96.4559ZM1345.82 92.1113H1318.13V89.939H1345.82V92.1113ZM1345.82 87.7666H1318.13V85.5943H1345.82V87.7666ZM1345.82 83.422H1318.13V81.2497H1345.82V83.422ZM1345.82 79.0773H1318.13V76.905H1345.82V79.0773ZM1345.82 74.7327H1318.13V72.5604H1345.82V74.7327ZM1345.82 70.388H1318.13V68.2157H1345.82V70.388ZM1345.82 66.0434H1318.13V63.8711H1345.82V66.0434ZM1345.82 61.6987H1318.13V59.5264H1345.82V61.6987ZM1345.82 57.3541H1318.13V55.1818H1345.82V57.3541Z" fill="#F0DDD2"/>
<path d="M1409.5 132.748V51.1913H1404.94V42.9062H1371.92V51.1913H1367.52V153.849H1335.13V107.375H1287.96V168.348H1265V59.088H1218.46V142.975H1212.96V93.0052H1204.47L1181.04 82.7783V93.0052H1175.85V154.755H1164.53V71.2568H1153.05V42H1151.48V71.2568H1140V176.763H1440V132.877H1409.5V132.748ZM1161.86 124.722H1142.83V122.909H1161.86V124.722ZM1161.86 120.579H1142.83V118.767H1161.86V120.579ZM1161.86 116.307H1142.83V114.495H1161.86V116.307ZM1161.86 112.165H1142.83V110.352H1161.86V112.165ZM1161.86 107.893H1142.83V106.08H1161.86V107.893ZM1161.86 103.75H1142.83V101.938H1161.86V103.75ZM1161.86 99.478H1142.83V97.6656H1161.86V99.478ZM1161.86 95.3354H1142.83V93.5231H1161.86V95.3354ZM1161.86 91.1929H1142.83V89.3805H1161.86V91.1929ZM1161.86 86.9209H1142.83V85.1085H1161.86V86.9209ZM1161.86 82.7783H1142.83V80.9659H1161.86V82.7783ZM1161.86 78.5063H1142.83V76.6939H1161.86V78.5063ZM1161.86 74.3637H1142.83V72.5514H1161.86V74.3637ZM1228.52 99.3485H1222.86V94.6882H1228.52V99.3485ZM1228.52 91.5812H1222.86V86.9209H1228.52V91.5812ZM1228.52 83.8139H1222.86V79.1536H1228.52V83.8139ZM1228.52 76.0466H1222.86V71.3863H1228.52V76.0466ZM1228.52 68.2794H1222.86V63.619H1228.52V68.2794ZM1239.21 99.3485H1233.55V94.6882H1239.21V99.3485ZM1239.21 91.5812H1233.55V86.9209H1239.21V91.5812ZM1239.21 83.8139H1233.55V79.1536H1239.21V83.8139ZM1239.21 76.0466H1233.55V71.3863H1239.21V76.0466ZM1239.21 68.2794H1233.55V63.619H1239.21V68.2794ZM1249.91 99.3485H1244.25V94.6882H1249.91V99.3485ZM1249.91 91.5812H1244.25V86.9209H1249.91V91.5812ZM1249.91 83.8139H1244.25V79.1536H1249.91V83.8139ZM1249.91 76.0466H1244.25V71.3863H1249.91V76.0466ZM1249.91 68.2794H1244.25V63.619H1249.91V68.2794ZM1260.75 99.3485H1255.09V94.6882H1260.75V99.3485ZM1260.75 91.5812H1255.09V86.9209H1260.75V91.5812ZM1260.75 83.8139H1255.09V79.1536H1260.75V83.8139ZM1260.75 76.0466H1255.09V71.3863H1260.75V76.0466ZM1415.31 171.067H1409.5V166.277H1415.31V171.067ZM1415.31 161.357H1409.5V156.568H1415.31V161.357ZM1415.31 151.648H1409.5V146.858H1415.31V151.648ZM1415.31 142.069H1409.5V137.279H1415.31V142.069ZM1426.32 171.067H1420.5V166.277H1426.32V171.067ZM1426.32 161.357H1420.5V156.568H1426.32V161.357ZM1426.32 151.648H1420.5V146.858H1426.32V151.648ZM1426.32 142.069H1420.5V137.279H1426.32V142.069ZM1437.17 171.067H1431.35V166.277H1437.17V171.067ZM1437.17 161.357H1431.35V156.568H1437.17V161.357ZM1437.17 151.648H1431.35V146.858H1437.17V151.648ZM1437.17 142.069H1431.35V137.279H1437.17V142.069Z" fill="#F2D1BF"/>
<path d="M1260.75 156.827H1255.09V161.487H1260.75V156.827Z" fill="#FFF6ED"/>
<path d="M1228.52 164.594H1222.86V169.255H1228.52V164.594Z" fill="#FFF6ED"/>
<path d="M1239.21 164.594H1233.55V169.255H1239.21V164.594Z" fill="#FFF6ED"/>
<path d="M1249.91 164.594H1244.25V169.255H1249.91V164.594Z" fill="#FFF6ED"/>
<path d="M1260.75 164.594H1255.09V169.255H1260.75V164.594Z" fill="#FFF6ED"/>
<path d="M1260.75 79.1538H1255.09V83.8142H1260.75V79.1538Z" fill="#FFF6ED"/>
<path d="M1228.52 86.9214H1222.86V91.5818H1228.52V86.9214Z" fill="#FFF6ED"/>
<path d="M1239.21 86.9214H1233.55V91.5818H1239.21V86.9214Z" fill="#FFF6ED"/>
<path d="M1249.91 86.9214H1244.25V91.5818H1249.91V86.9214Z" fill="#FFF6ED"/>
<path d="M1260.75 86.9214H1255.09V91.5818H1260.75V86.9214Z" fill="#FFF6ED"/>
<path d="M1228.52 94.6885H1222.86V99.3489H1228.52V94.6885Z" fill="#FFF6ED"/>
<path d="M1239.21 94.6885H1233.55V99.3489H1239.21V94.6885Z" fill="#FFF6ED"/>
<path d="M1249.91 94.6885H1244.25V99.3489H1249.91V94.6885Z" fill="#FFF6ED"/>
<path d="M1260.75 94.6885H1255.09V99.3489H1260.75V94.6885Z" fill="#FFF6ED"/>
<path d="M1228.52 102.456H1222.86V107.116H1228.52V102.456Z" fill="#FFF6ED"/>
<path d="M1239.21 102.456H1233.55V107.116H1239.21V102.456Z" fill="#FFF6ED"/>
<path d="M1249.91 102.456H1244.25V107.116H1249.91V102.456Z" fill="#FFF6ED"/>
<path d="M1260.75 102.456H1255.09V107.116H1260.75V102.456Z" fill="#FFF6ED"/>
<path d="M1228.52 110.223H1222.86V114.884H1228.52V110.223Z" fill="#FFF6ED"/>
<path d="M1239.21 110.223H1233.55V114.884H1239.21V110.223Z" fill="#FFF6ED"/>
<path d="M1249.91 110.223H1244.25V114.884H1249.91V110.223Z" fill="#FFF6ED"/>
<path d="M1260.75 110.223H1255.09V114.884H1260.75V110.223Z" fill="#FFF6ED"/>
<path d="M1228.52 117.99H1222.86V122.651H1228.52V117.99Z" fill="#FFF6ED"/>
<path d="M1239.21 117.99H1233.55V122.651H1239.21V117.99Z" fill="#FFF6ED"/>
<path d="M1249.91 117.99H1244.25V122.651H1249.91V117.99Z" fill="#FFF6ED"/>
<path d="M1260.75 117.99H1255.09V122.651H1260.75V117.99Z" fill="#FFF6ED"/>
<path d="M1228.52 125.757H1222.86V130.418H1228.52V125.757Z" fill="#FFF6ED"/>
<path d="M1239.21 125.757H1233.55V130.418H1239.21V125.757Z" fill="#FFF6ED"/>
<path d="M1249.91 125.757H1244.25V130.418H1249.91V125.757Z" fill="#FFF6ED"/>
<path d="M1260.75 125.757H1255.09V130.418H1260.75V125.757Z" fill="#FFF6ED"/>
<path d="M1228.52 133.525H1222.86V138.186H1228.52V133.525Z" fill="#FFF6ED"/>
<path d="M1239.21 133.525H1233.55V138.186H1239.21V133.525Z" fill="#FFF6ED"/>
<path d="M1249.91 133.525H1244.25V138.186H1249.91V133.525Z" fill="#FFF6ED"/>
<path d="M1260.75 133.525H1255.09V138.186H1260.75V133.525Z" fill="#FFF6ED"/>
<path d="M1228.52 141.292H1222.86V145.952H1228.52V141.292Z" fill="#FFF6ED"/>
<path d="M1239.21 141.292H1233.55V145.952H1239.21V141.292Z" fill="#FFF6ED"/>
<path d="M1249.91 141.292H1244.25V145.952H1249.91V141.292Z" fill="#FFF6ED"/>
<path d="M1260.75 141.292H1255.09V145.952H1260.75V141.292Z" fill="#FFF6ED"/>
<path d="M1228.52 149.059H1222.86V153.719H1228.52V149.059Z" fill="#FFF6ED"/>
<path d="M1239.21 149.059H1233.55V153.719H1239.21V149.059Z" fill="#FFF6ED"/>
<path d="M1249.91 149.059H1244.25V153.719H1249.91V149.059Z" fill="#FFF6ED"/>
<path d="M1260.75 149.059H1255.09V153.719H1260.75V149.059Z" fill="#FFF6ED"/>
<path d="M1228.52 156.827H1222.86V161.487H1228.52V156.827Z" fill="#FFF6ED"/>
<path d="M1239.21 156.827H1233.55V161.487H1239.21V156.827Z" fill="#FFF6ED"/>
<path d="M1249.91 156.827H1244.25V161.487H1249.91V156.827Z" fill="#FFF6ED"/>
<path d="M1228.52 63.6191H1222.86V68.2795H1228.52V63.6191Z" fill="#FFF6ED"/>
<path d="M1239.21 63.6191H1233.55V68.2795H1239.21V63.6191Z" fill="#FFF6ED"/>
<path d="M1249.91 63.6191H1244.25V68.2795H1249.91V63.6191Z" fill="#FFF6ED"/>
<path d="M1228.52 71.3872H1222.86V76.0476H1228.52V71.3872Z" fill="#FFF6ED"/>
<path d="M1239.21 71.3872H1233.55V76.0476H1239.21V71.3872Z" fill="#FFF6ED"/>
<path d="M1249.91 71.3872H1244.25V76.0476H1249.91V71.3872Z" fill="#FFF6ED"/>
<path d="M1260.75 71.3872H1255.09V76.0476H1260.75V71.3872Z" fill="#FFF6ED"/>
<path d="M1228.52 79.1538H1222.86V83.8142H1228.52V79.1538Z" fill="#FFF6ED"/>
<path d="M1239.21 79.1538H1233.55V83.8142H1239.21V79.1538Z" fill="#FFF6ED"/>
<path d="M1249.91 79.1538H1244.25V83.8142H1249.91V79.1538Z" fill="#FFF6ED"/>
</g>
<path d="M712.665 108.571C712.665 108.571 713.271 109.784 712.907 110.269C712.665 110.512 706.115 114.151 699.807 118.154C693.621 122.035 687.92 126.28 687.192 126.402C685.737 126.644 677.125 126.159 677.125 126.159C677.125 126.159 680.764 125.917 682.583 124.825C684.403 123.733 692.893 118.76 695.077 117.426C697.381 116.334 711.937 108.935 712.665 108.571Z" fill="#78E0DE"/>
<path d="M629.213 155.392C629.213 155.392 628 161.214 628.242 161.457C628.485 161.699 640.857 161.578 641.221 161.457C641.585 161.335 642.07 160.971 641.221 159.152C640.372 157.454 639.159 155.513 636.733 155.392C634.307 155.271 629.213 155.392 629.213 155.392Z" fill="#FFA64E"/>
<path d="M826.197 157.818C824.863 161.82 808.124 165.823 808.124 165.823C808.124 165.823 634.914 166.672 631.518 165.823H631.396C629.456 165.338 628.243 163.64 628.121 161.82C628.121 161.456 628.121 160.971 628.121 160.607C628.364 159.394 628.728 157.575 629.092 155.513C630.426 148.963 632.973 139.623 636.006 137.44C640.251 134.408 667.785 128.464 677.246 126.402C678.58 126.159 679.551 125.917 680.036 125.796C683.19 124.946 699.322 114.758 712.907 108.814C716.061 107.359 719.215 106.146 721.883 105.418C738.864 100.687 774.647 103.598 785.199 105.66C787.989 106.267 791.871 108.208 796.116 110.755C803.03 115 810.793 120.822 816.008 124.946C819.647 127.736 821.952 129.798 821.952 129.798C822.195 130.405 822.316 131.133 822.437 131.982C822.922 135.621 822.437 140.958 822.801 142.413C822.801 142.534 822.922 142.777 823.044 142.898C823.893 144.596 826.44 146.658 826.44 146.658C826.44 146.658 827.532 153.815 826.197 157.818Z" fill="white"/>
<path d="M743.474 104.083L746.627 96.1991C746.87 95.7139 747.355 95.2287 747.84 95.2287C749.296 94.9861 752.328 94.7435 755.603 95.5926C756.088 95.7139 756.574 96.1991 756.695 96.6843L758.757 104.083" fill="#FF8A31"/>
<path d="M826.197 157.818C824.863 161.821 808.124 165.823 808.124 165.823C808.124 165.823 634.914 166.672 631.518 165.823H631.396C629.456 165.338 628.243 163.64 628.121 161.821C628.121 161.457 628.121 160.971 628.121 160.608C628.364 159.395 628.728 157.575 629.092 155.513C629.577 153.33 630.184 150.783 630.79 148.357C630.79 148.235 630.79 148.235 630.79 148.235C632.124 143.384 633.944 138.896 635.884 137.44C640.13 134.408 667.664 128.464 677.125 126.402C678.459 126.16 679.43 125.917 679.915 125.796C683.068 124.947 699.201 114.758 712.786 108.814C715.94 107.359 719.093 106.146 721.762 105.418C736.802 101.173 766.641 102.992 780.469 104.933C782.288 105.175 783.744 105.418 784.957 105.661C787.747 106.267 791.628 108.208 795.873 110.755C802.787 115 810.55 120.823 815.766 124.947C819.405 127.736 821.709 129.799 821.709 129.799C821.952 130.405 822.073 131.133 822.195 131.982C822.68 135.621 822.195 140.958 822.558 142.413C822.558 142.535 822.68 142.777 822.801 142.898C823.65 144.597 826.197 146.659 826.197 146.659C826.197 146.659 827.532 153.815 826.197 157.818Z" fill="url(#paint0_linear)"/>
<path d="M790.779 153.694H785.927V158.546H790.779V153.694Z" fill="url(#paint1_linear)"/>
<path d="M704.052 153.694H699.201V158.546H704.052V153.694Z" fill="url(#paint2_linear)"/>
<path d="M708.783 148.842H703.931V153.694H708.783V148.842Z" fill="url(#paint3_linear)"/>
<path d="M713.635 153.694H708.783V158.546H713.635V153.694Z" fill="url(#paint4_linear)"/>
<path d="M718.486 148.842H713.634V153.694H718.486V148.842Z" fill="url(#paint5_linear)"/>
<path d="M723.338 153.694H718.487V158.546H723.338V153.694Z" fill="url(#paint6_linear)"/>
<path d="M728.069 148.842H723.217V153.694H728.069V148.842Z" fill="url(#paint7_linear)"/>
<path d="M732.921 153.694H728.069V158.546H732.921V153.694Z" fill="url(#paint8_linear)"/>
<path d="M737.773 148.842H732.921V153.694H737.773V148.842Z" fill="url(#paint9_linear)"/>
<path d="M742.503 153.694H737.651V158.546H742.503V153.694Z" fill="url(#paint10_linear)"/>
<path d="M747.355 148.842H742.503V153.694H747.355V148.842Z" fill="url(#paint11_linear)"/>
<path d="M752.207 153.694H747.355V158.546H752.207V153.694Z" fill="url(#paint12_linear)"/>
<path d="M757.059 148.842H752.207V153.694H757.059V148.842Z" fill="url(#paint13_linear)"/>
<path d="M761.789 153.694H756.937V158.546H761.789V153.694Z" fill="url(#paint14_linear)"/>
<path d="M766.641 148.842H761.789V153.694H766.641V148.842Z" fill="url(#paint15_linear)"/>
<path d="M771.493 153.694H766.641V158.546H771.493V153.694Z" fill="url(#paint16_linear)"/>
<path d="M776.345 148.842H771.493V153.694H776.345V148.842Z" fill="url(#paint17_linear)"/>
<path d="M781.075 153.694H776.223V158.546H781.075V153.694Z" fill="url(#paint18_linear)"/>
<path d="M785.927 148.842H781.075V153.694H785.927V148.842Z" fill="url(#paint19_linear)"/>
<path d="M675.063 153.694H670.211V158.546H675.063V153.694Z" fill="url(#paint20_linear)"/>
<path d="M679.914 148.842H675.063V153.694H679.914V148.842Z" fill="url(#paint21_linear)"/>
<path d="M684.766 153.694H679.915V158.546H684.766V153.694Z" fill="url(#paint22_linear)"/>
<path d="M689.497 148.842H684.645V153.694H689.497V148.842Z" fill="url(#paint23_linear)"/>
<path d="M694.349 153.694H689.497V158.546H694.349V153.694Z" fill="url(#paint24_linear)"/>
<path d="M699.2 148.842H694.349V153.694H699.2V148.842Z" fill="url(#paint25_linear)"/>
<path d="M815.645 124.825C815.645 124.825 807.76 124.946 806.426 124.825C805.092 124.704 792.477 114.03 792.235 112.817C791.992 111.604 795.873 110.755 795.873 110.755C802.787 114.879 810.55 120.701 815.645 124.825Z" fill="url(#paint26_linear)"/>
<path d="M747.962 108.692L747.598 124.339C747.598 124.339 747.719 125.431 750.266 125.431C752.814 125.431 790.294 124.582 790.294 124.582C790.294 124.582 792.235 124.339 791.264 122.763C790.294 121.065 782.046 110.997 775.011 109.784C767.976 108.571 749.417 108.207 749.417 108.207C749.417 108.207 747.962 108.086 747.962 108.692Z" fill="url(#paint27_linear)"/>
<path d="M743.352 108.935L739.956 124.946C739.956 124.946 739.471 126.038 738.379 126.038C737.166 126.038 695.926 127.372 695.926 127.372C695.926 127.372 694.834 126.765 695.926 125.674C697.017 124.582 711.573 114.879 720.427 111.604C729.282 108.329 743.11 108.086 743.11 108.086C743.11 108.086 743.473 108.086 743.352 108.935Z" fill="url(#paint28_linear)"/>
<path d="M712.907 110.391C712.664 110.633 706.114 114.394 699.686 118.275C693.5 122.156 687.799 126.402 687.071 126.523C685.615 126.766 677.003 126.402 677.003 126.402C678.338 126.159 679.308 125.917 679.793 125.795C682.947 124.946 699.079 114.757 712.664 108.814C712.786 108.814 713.271 109.906 712.907 110.391Z" fill="url(#paint29_linear)"/>
<path d="M796.314 176.821C805.054 174.771 810.477 166.024 808.426 157.284C806.376 148.544 797.629 143.122 788.89 145.172C780.15 147.222 774.727 155.969 776.777 164.709C778.828 173.448 787.575 178.871 796.314 176.821Z" fill="#181844"/>
<path d="M671.704 177.017C680.566 175.585 686.589 167.24 685.157 158.379C683.725 149.517 675.381 143.494 666.519 144.926C657.658 146.357 651.634 154.702 653.066 163.564C654.498 172.425 662.842 178.449 671.704 177.017Z" fill="#181844"/>
<path d="M669.119 170.189C674.21 170.189 678.337 166.062 678.337 160.971C678.337 155.88 674.21 151.752 669.119 151.752C664.028 151.752 659.9 155.88 659.9 160.971C659.9 166.062 664.028 170.189 669.119 170.189Z" fill="#DDDDDD" stroke="#4B4B90" stroke-width="0.9283" stroke-miterlimit="10"/>
<path d="M783.38 160.971C783.38 166.065 787.504 170.189 792.598 170.189C797.693 170.189 801.817 166.065 801.817 160.971C801.817 155.876 797.693 151.752 792.598 151.752C787.504 151.752 783.38 155.876 783.38 160.971Z" fill="#DDDDDD" stroke="#4B4B90" stroke-width="0.9283" stroke-miterlimit="10"/>
<path d="M822.679 142.777C822.679 142.777 818.555 142.777 817.464 142.291C816.493 141.806 811.884 134.529 811.399 133.316C810.914 132.224 812.127 131.739 812.127 131.739H821.952C822.315 134.529 822.073 138.289 822.194 140.593C822.194 141.321 822.194 141.806 822.315 142.17C822.558 142.413 822.558 142.655 822.679 142.777Z" fill="#FF8A31"/>
<path d="M652.744 136.47C652.744 136.47 647.165 144.233 645.588 145.082C644.132 145.931 634.307 145.203 633.701 145.082C633.58 145.082 633.458 144.718 633.58 144.111C633.822 142.898 634.671 140.594 635.763 139.623C636.855 138.653 644.86 137.197 649.469 136.591C651.531 136.348 652.987 136.227 652.744 136.47Z" fill="#FF8A31"/>
<path d="M652.744 136.47C652.744 136.47 647.165 144.233 645.588 145.082C644.132 145.931 634.307 145.203 633.701 145.082C633.58 145.082 633.458 144.718 633.58 144.111C644.011 144.354 648.014 139.502 649.469 136.591C651.531 136.348 652.987 136.227 652.744 136.47Z" fill="#FF7411"/>
<path d="M635.521 142.049C635.521 142.049 636.006 140.593 636.855 140.108C637.704 139.623 643.041 138.531 643.041 138.531C643.041 138.531 636.491 140.593 635.521 142.049Z" fill="#FFA666"/>
<path d="M641.1 161.699C639.523 161.699 628.485 161.699 628 161.699C628 161.335 628 160.85 628 160.486C628.243 159.273 628.607 157.454 628.97 155.392H637.825C637.825 155.392 639.159 155.271 640.372 157.454C641.343 159.395 642.677 161.699 641.1 161.699Z" fill="#181844"/>
<path d="M641.1 161.699H640.493C640.251 160.971 639.644 160.001 639.281 159.152C638.068 156.969 636.733 157.09 636.733 157.09H628.728C628.849 156.605 628.97 155.998 629.092 155.392H637.946C637.946 155.392 639.281 155.271 640.493 157.454C641.343 159.395 642.677 161.699 641.1 161.699Z" fill="#1F1F54"/>
<path d="M746.142 106.024C746.142 106.024 742.989 125.068 742.867 136.47C742.746 147.871 742.867 163.033 742.867 163.033" stroke="#FF812C" stroke-width="0.4089" stroke-miterlimit="10" stroke-linecap="round"/>
<path d="M777.8 107.844C761.183 105.54 746.142 105.297 727.948 107.238C724.309 107.602 720.427 109.3 716.546 111.119C703.688 116.941 690.831 126.888 690.467 127.373C690.103 127.979 690.467 160.487 690.467 160.487C690.467 160.487 690.346 163.155 693.864 163.155H762.881C766.884 163.155 770.401 160.365 771.25 156.484C772.463 150.783 775.859 143.263 785.442 140.473C785.442 140.473 795.145 126.039 795.509 123.855C795.752 121.672 783.137 108.572 777.8 107.844Z" stroke="#FF812C" stroke-width="0.4089" stroke-miterlimit="10" stroke-linecap="round"/>
<path d="M738.257 128.585C738.257 128.585 728.432 128.706 726.734 129.191C725.643 129.555 725.4 131.86 727.583 131.86C730.494 131.86 737.166 130.283 738.379 129.919C739.349 129.555 739.47 128.585 738.257 128.585Z" fill="#FF8A31"/>
<path d="M788.595 128.585C788.595 128.585 778.77 128.706 777.072 129.191C775.981 129.555 775.738 131.86 777.921 131.86C780.832 131.86 787.504 130.283 788.717 129.919C789.687 129.555 789.808 128.585 788.595 128.585Z" fill="#FF8A31"/>
<path d="M822.679 142.777C822.679 142.777 818.555 142.777 817.464 142.291C816.493 141.806 811.884 134.529 811.399 133.316C810.914 132.224 812.127 131.739 812.127 131.739H814.552C815.765 134.407 818.677 139.744 822.194 140.593C822.194 141.321 822.194 141.806 822.315 142.17C822.558 142.413 822.558 142.655 822.679 142.777Z" fill="#FF7411"/>
<defs>
<linearGradient id="paint0_linear" x1="744.814" y1="153.098" x2="651.821" y2="108.219" gradientUnits="userSpaceOnUse">
<stop offset="0.00537634" stop-color="#FFAE29"/>
<stop offset="1" stop-color="#FFC729"/>
</linearGradient>
<linearGradient id="paint1_linear" x1="670.07" y1="156.051" x2="789.021" y2="156.051" gradientUnits="userSpaceOnUse">
<stop offset="0.00537634" stop-color="white"/>
<stop offset="1" stop-color="white" stop-opacity="0.4"/>
</linearGradient>
<linearGradient id="paint2_linear" x1="670.071" y1="156.051" x2="789.021" y2="156.051" gradientUnits="userSpaceOnUse">
<stop offset="0.00537634" stop-color="white"/>
<stop offset="1" stop-color="white" stop-opacity="0.4"/>
</linearGradient>
<linearGradient id="paint3_linear" x1="670.072" y1="151.231" x2="789.019" y2="151.231" gradientUnits="userSpaceOnUse">
<stop offset="0.00537634" stop-color="white"/>
<stop offset="1" stop-color="white" stop-opacity="0.4"/>
</linearGradient>
<linearGradient id="paint4_linear" x1="670.071" y1="156.051" x2="789.021" y2="156.051" gradientUnits="userSpaceOnUse">
<stop offset="0.00537634" stop-color="white"/>
<stop offset="1" stop-color="white" stop-opacity="0.4"/>
</linearGradient>
<linearGradient id="paint5_linear" x1="670.072" y1="151.231" x2="789.019" y2="151.231" gradientUnits="userSpaceOnUse">
<stop offset="0.00537634" stop-color="white"/>
<stop offset="1" stop-color="white" stop-opacity="0.4"/>
</linearGradient>
<linearGradient id="paint6_linear" x1="670.071" y1="156.051" x2="789.021" y2="156.051" gradientUnits="userSpaceOnUse">
<stop offset="0.00537634" stop-color="white"/>
<stop offset="1" stop-color="white" stop-opacity="0.4"/>
</linearGradient>
<linearGradient id="paint7_linear" x1="670.073" y1="151.231" x2="789.02" y2="151.231" gradientUnits="userSpaceOnUse">
<stop offset="0.00537634" stop-color="white"/>
<stop offset="1" stop-color="white" stop-opacity="0.4"/>
</linearGradient>
<linearGradient id="paint8_linear" x1="670.071" y1="156.051" x2="789.021" y2="156.051" gradientUnits="userSpaceOnUse">
<stop offset="0.00537634" stop-color="white"/>
<stop offset="1" stop-color="white" stop-opacity="0.4"/>
</linearGradient>
<linearGradient id="paint9_linear" x1="670.072" y1="151.231" x2="789.022" y2="151.231" gradientUnits="userSpaceOnUse">
<stop offset="0.00537634" stop-color="white"/>
<stop offset="1" stop-color="white" stop-opacity="0.4"/>
</linearGradient>
<linearGradient id="paint10_linear" x1="670.073" y1="156.051" x2="789.02" y2="156.051" gradientUnits="userSpaceOnUse">
<stop offset="0.00537634" stop-color="white"/>
<stop offset="1" stop-color="white" stop-opacity="0.4"/>
</linearGradient>
<linearGradient id="paint11_linear" x1="670.071" y1="151.231" x2="789.021" y2="151.231" gradientUnits="userSpaceOnUse">
<stop offset="0.00537634" stop-color="white"/>
<stop offset="1" stop-color="white" stop-opacity="0.4"/>
</linearGradient>
<linearGradient id="paint12_linear" x1="670.073" y1="156.051" x2="789.02" y2="156.051" gradientUnits="userSpaceOnUse">
<stop offset="0.00537634" stop-color="white"/>
<stop offset="1" stop-color="white" stop-opacity="0.4"/>
</linearGradient>
<linearGradient id="paint13_linear" x1="670.071" y1="151.231" x2="789.021" y2="151.231" gradientUnits="userSpaceOnUse">
<stop offset="0.00537634" stop-color="white"/>
<stop offset="1" stop-color="white" stop-opacity="0.4"/>
</linearGradient>
<linearGradient id="paint14_linear" x1="670.073" y1="156.051" x2="789.02" y2="156.051" gradientUnits="userSpaceOnUse">
<stop offset="0.00537634" stop-color="white"/>
<stop offset="1" stop-color="white" stop-opacity="0.4"/>
</linearGradient>
<linearGradient id="paint15_linear" x1="670.071" y1="151.231" x2="789.021" y2="151.231" gradientUnits="userSpaceOnUse">
<stop offset="0.00537634" stop-color="white"/>
<stop offset="1" stop-color="white" stop-opacity="0.4"/>
</linearGradient>
<linearGradient id="paint16_linear" x1="670.073" y1="156.051" x2="789.02" y2="156.051" gradientUnits="userSpaceOnUse">
<stop offset="0.00537634" stop-color="white"/>
<stop offset="1" stop-color="white" stop-opacity="0.4"/>
</linearGradient>
<linearGradient id="paint17_linear" x1="670.071" y1="151.231" x2="789.021" y2="151.231" gradientUnits="userSpaceOnUse">
<stop offset="0.00537634" stop-color="white"/>
<stop offset="1" stop-color="white" stop-opacity="0.4"/>
</linearGradient>
<linearGradient id="paint18_linear" x1="670.073" y1="156.051" x2="789.02" y2="156.051" gradientUnits="userSpaceOnUse">
<stop offset="0.00537634" stop-color="white"/>
<stop offset="1" stop-color="white" stop-opacity="0.4"/>
</linearGradient>
<linearGradient id="paint19_linear" x1="670.071" y1="151.231" x2="789.021" y2="151.231" gradientUnits="userSpaceOnUse">
<stop offset="0.00537634" stop-color="white"/>
<stop offset="1" stop-color="white" stop-opacity="0.4"/>
</linearGradient>
<linearGradient id="paint20_linear" x1="670.072" y1="156.051" x2="789.019" y2="156.051" gradientUnits="userSpaceOnUse">
<stop offset="0.00537634" stop-color="white"/>
<stop offset="1" stop-color="white" stop-opacity="0.4"/>
</linearGradient>
<linearGradient id="paint21_linear" x1="670.071" y1="151.231" x2="789.022" y2="151.231" gradientUnits="userSpaceOnUse">
<stop offset="0.00537634" stop-color="white"/>
<stop offset="1" stop-color="white" stop-opacity="0.4"/>
</linearGradient>
<linearGradient id="paint22_linear" x1="670.072" y1="156.051" x2="789.019" y2="156.051" gradientUnits="userSpaceOnUse">
<stop offset="0.00537634" stop-color="white"/>
<stop offset="1" stop-color="white" stop-opacity="0.4"/>
</linearGradient>
<linearGradient id="paint23_linear" x1="670.071" y1="151.231" x2="789.021" y2="151.231" gradientUnits="userSpaceOnUse">
<stop offset="0.00537634" stop-color="white"/>
<stop offset="1" stop-color="white" stop-opacity="0.4"/>
</linearGradient>
<linearGradient id="paint24_linear" x1="670.071" y1="156.051" x2="789.022" y2="156.051" gradientUnits="userSpaceOnUse">
<stop offset="0.00537634" stop-color="white"/>
<stop offset="1" stop-color="white" stop-opacity="0.4"/>
</linearGradient>
<linearGradient id="paint25_linear" x1="670.072" y1="151.231" x2="789.019" y2="151.231" gradientUnits="userSpaceOnUse">
<stop offset="0.00537634" stop-color="white"/>
<stop offset="1" stop-color="white" stop-opacity="0.4"/>
</linearGradient>
<linearGradient id="paint26_linear" x1="699.589" y1="104.182" x2="812.03" y2="119.187" gradientUnits="userSpaceOnUse">
<stop offset="0.00537634" stop-color="#003177"/>
<stop offset="1" stop-color="#003154"/>
</linearGradient>
<linearGradient id="paint27_linear" x1="698.935" y1="109.083" x2="811.377" y2="124.088" gradientUnits="userSpaceOnUse">
<stop offset="0.00537634" stop-color="#003177"/>
<stop offset="1" stop-color="#003154"/>
</linearGradient>
<linearGradient id="paint28_linear" x1="698.159" y1="114.892" x2="810.601" y2="129.898" gradientUnits="userSpaceOnUse">
<stop offset="0.00537634" stop-color="#003177"/>
<stop offset="1" stop-color="#003154"/>
</linearGradient>
<linearGradient id="paint29_linear" x1="697.763" y1="117.861" x2="810.205" y2="132.867" gradientUnits="userSpaceOnUse">
<stop offset="0.00537634" stop-color="#003177"/>
<stop offset="1" stop-color="#003154"/>
</linearGradient>
</defs>
</svg>
