<svg width="1407" height="513" viewBox="0 0 1407 513" fill="none" xmlns="http://www.w3.org/2000/svg">
<path d="M879.745 68.9342H1134.41C1134.41 68.9342 1072.12 12.1396 1060.25 42.6817C1060.25 42.6817 1024.29 5.79096 993.486 0.471825C959.931 -5.53365 966.814 29.2981 966.814 29.2981C966.814 29.2981 932.916 -4.16097 896.092 -2.95987C859.096 -1.75878 879.745 68.9342 879.745 68.9342Z" fill="#CAF5FF"/>
<path opacity="0.3" d="M128.069 66.3607H310.983C310.983 66.3607 266.244 25.5235 257.813 47.4863C257.813 47.4863 232.002 21.0623 209.976 17.1158C185.886 12.8262 190.876 37.8776 190.876 37.8776C190.876 37.8776 166.614 13.8557 140.114 14.7136C113.271 15.3999 128.069 66.3607 128.069 66.3607Z" fill="#CAF5FF"/>
<path d="M-29.9307 160.732H152.983C152.983 160.732 108.244 119.895 99.8127 141.858C99.8127 141.858 74.0017 115.434 51.9763 111.487C27.886 107.197 32.8762 132.249 32.8762 132.249C32.8762 132.249 8.61378 108.227 -17.8855 109.085C-44.729 109.943 -29.9307 160.732 -29.9307 160.732Z" fill="#CAF5FF"/>
<path opacity="0.5" d="M1224.07 155.07H1406.98C1406.98 155.07 1362.24 114.233 1353.81 136.196C1353.81 136.196 1328 109.771 1305.98 105.825C1281.89 101.535 1286.88 126.587 1286.88 126.587C1286.88 126.587 1262.61 102.565 1236.11 103.423C1209.27 104.281 1224.07 155.07 1224.07 155.07Z" fill="#CAF5FF"/>
<path opacity="0.4" d="M298.06 439.661C300.882 433.342 298.032 425.937 291.695 423.123C285.357 420.309 277.932 423.151 275.11 429.47C272.288 435.789 275.137 443.194 281.475 446.008C287.812 448.822 295.237 445.98 298.06 439.661Z" fill="#CAF5FF"/>
<path opacity="0.4" d="M890.725 200.226C895.631 195.335 895.631 187.404 890.725 182.512C885.82 177.621 877.866 177.621 872.961 182.512C868.056 187.404 868.056 195.335 872.961 200.226C877.866 205.118 885.82 205.118 890.725 200.226Z" fill="#CAF5FF"/>
<path opacity="0.4" d="M1197.57 366.546C1199.87 357.352 1194.26 348.037 1185.04 345.741C1175.82 343.445 1166.48 349.037 1164.18 358.231C1161.87 367.425 1167.48 376.74 1176.7 379.036C1185.92 381.332 1195.26 375.74 1197.57 366.546Z" fill="#CAF5FF"/>
<path opacity="0.6" d="M1083.67 404.472C1083.67 409.276 1079.89 413.051 1075.07 413.051C1070.25 413.051 1066.46 409.276 1066.46 404.472C1066.46 399.667 1070.25 395.893 1075.07 395.893C1079.89 395.893 1083.67 399.667 1083.67 404.472Z" fill="#CAF5FF"/>
<path opacity="0.6" d="M447.516 236.49C447.516 239.579 444.935 242.153 441.837 242.153C438.74 242.153 436.159 239.579 436.159 236.49C436.159 233.402 438.74 230.828 441.837 230.828C445.107 230.828 447.516 233.23 447.516 236.49Z" fill="#CAF5FF"/>
<path opacity="0.6" d="M394.517 52.2082C397.653 52.2082 400.195 49.6731 400.195 46.5459C400.195 43.4187 397.653 40.8835 394.517 40.8835C391.381 40.8835 388.839 43.4187 388.839 46.5459C388.839 49.6731 391.381 52.2082 394.517 52.2082Z" fill="#CAF5FF"/>
<path opacity="0.6" d="M728.856 120.156C731.992 120.156 734.534 117.621 734.534 114.494C734.534 111.366 731.992 108.831 728.856 108.831C725.72 108.831 723.177 111.366 723.177 114.494C723.177 117.621 725.72 120.156 728.856 120.156Z" fill="#CAF5FF"/>
<path opacity="0.6" d="M313.643 398.124C316.779 398.124 319.321 395.589 319.321 392.462C319.321 389.335 316.779 386.8 313.643 386.8C310.506 386.8 307.964 389.335 307.964 392.462C307.964 395.589 310.506 398.124 313.643 398.124Z" fill="#CAF5FF"/>
<path opacity="0.6" d="M890.261 397.952C890.261 401.041 887.68 403.614 884.582 403.614C881.485 403.614 878.904 401.041 878.904 397.952C878.904 394.864 881.485 392.29 884.582 392.29C887.852 392.461 890.261 394.864 890.261 397.952Z" fill="#CAF5FF"/>
<path opacity="0.6" d="M1050.29 236.49C1050.29 239.579 1047.71 242.153 1044.61 242.153C1041.51 242.153 1038.93 239.579 1038.93 236.49C1038.93 233.402 1041.51 230.828 1044.61 230.828C1047.71 230.828 1050.29 233.23 1050.29 236.49Z" fill="#CAF5FF"/>
<path opacity="0.6" d="M1010.37 151.384C1010.37 156.189 1006.58 159.963 1001.76 159.963C996.946 159.963 993.161 156.189 993.161 151.384C993.161 146.58 996.946 142.805 1001.76 142.805C1006.41 142.805 1010.37 146.58 1010.37 151.384Z" fill="#CAF5FF"/>
<path opacity="0.4" d="M575.122 118.006C577.134 105.755 568.805 94.1967 556.519 92.1906C544.232 90.1845 532.641 98.4899 530.629 110.741C528.618 122.993 536.947 134.551 549.233 136.557C561.519 138.563 573.11 130.258 575.122 118.006Z" fill="#CAF5FF"/>
<path d="M359.758 171.46V182.27" stroke="#CAF5FF" stroke-miterlimit="10" stroke-linecap="round" stroke-linejoin="round"/>
<path d="M365.093 176.951H354.252" stroke="#CAF5FF" stroke-miterlimit="10" stroke-linecap="round" stroke-linejoin="round"/>
<path d="M428.932 290.54V301.35" stroke="#CAF5FF" stroke-miterlimit="10" stroke-linecap="round" stroke-linejoin="round"/>
<path d="M434.266 295.859H423.425" stroke="#CAF5FF" stroke-miterlimit="10" stroke-linecap="round" stroke-linejoin="round"/>
<path d="M613.567 71.5969V82.4068" stroke="#CAF5FF" stroke-width="2" stroke-miterlimit="10" stroke-linecap="round" stroke-linejoin="round"/>
<path d="M619.073 76.9163H608.232" stroke="#CAF5FF" stroke-width="2" stroke-miterlimit="10" stroke-linecap="round" stroke-linejoin="round"/>
<path d="M924.675 209.723V220.533" stroke="#CAF5FF" stroke-width="2" stroke-miterlimit="10" stroke-linecap="round" stroke-linejoin="round"/>
<path d="M930.182 215.042H919.341" stroke="#CAF5FF" stroke-width="2" stroke-miterlimit="10" stroke-linecap="round" stroke-linejoin="round"/>
<path d="M1134.43 265.145V275.955" stroke="#CAF5FF" stroke-width="2" stroke-miterlimit="10" stroke-linecap="round" stroke-linejoin="round"/>
<path d="M1139.77 270.636H1129.1" stroke="#CAF5FF" stroke-width="2" stroke-miterlimit="10" stroke-linecap="round" stroke-linejoin="round"/>
<path d="M1198.1 450.457V461.267" stroke="#CAF5FF" stroke-width="2" stroke-miterlimit="10" stroke-linecap="round" stroke-linejoin="round"/>
<path d="M1203.43 455.948H1192.77" stroke="#CAF5FF" stroke-width="2" stroke-miterlimit="10" stroke-linecap="round" stroke-linejoin="round"/>
</svg>
